<?xml version="1.0" encoding="UTF-8"?>
<svg id="Layer_1" data-name="Layer 1" xmlns="http://www.w3.org/2000/svg" xmlns:xlink="http://www.w3.org/1999/xlink" viewBox="0 0 1800 1440">
  <defs>
    <radialGradient id="radial-gradient" cx="-55.7" cy="1579.11" fx="-55.7" fy="1579.11" r=".5" gradientTransform="translate(12041 158561) scale(200 -100)" gradientUnits="userSpaceOnUse">
      <stop offset="0" stop-color="#fff" stop-opacity=".5"/>
      <stop offset="1" stop-color="#fff" stop-opacity="0"/>
    </radialGradient>
    <radialGradient id="radial-gradient-2" cx="-57.57" cy="1580.15" fx="-57.57" fy="1580.15" r=".5" gradientTransform="translate(35441 632711) scale(600 -400)" gradientUnits="userSpaceOnUse">
      <stop offset="0" stop-color="#7c4bc4" stop-opacity=".25"/>
      <stop offset="1" stop-color="#7c4bc4" stop-opacity="0"/>
    </radialGradient>
    <radialGradient id="radial-gradient-3" cx="-57.94" cy="1580.3" fx="-57.94" fy="1580.3" r=".5" gradientTransform="translate(58841 1106861) scale(1000 -700)" gradientUnits="userSpaceOnUse">
      <stop offset="0" stop-color="#7c4bc4" stop-opacity=".15"/>
      <stop offset="1" stop-color="#7c4bc4" stop-opacity="0"/>
    </radialGradient>
    <radialGradient id="radial-gradient-4" cx="-58.1" cy="1580.36" fx="-58.1" fy="1580.36" r=".5" gradientTransform="translate(82241 1581011) scale(1400 -1000)" gradientUnits="userSpaceOnUse">
      <stop offset="0" stop-color="#5e2a9e" stop-opacity=".12"/>
      <stop offset=".92" stop-color="#5e2a9e" stop-opacity="0"/>
    </radialGradient>
    <radialGradient id="radial-gradient-5" cx="-58.19" cy="1580.39" fx="-58.19" fy="1580.39" r=".5" gradientTransform="translate(105641 2055161) scale(1800 -1300)" gradientUnits="userSpaceOnUse">
      <stop offset="0" stop-color="#4b1482" stop-opacity=".1"/>
      <stop offset=".88" stop-color="#4b1482" stop-opacity="0"/>
    </radialGradient>
    <linearGradient id="linear-gradient" x1="679.01" y1="874.9" x2="679.01" y2="1001.2" gradientUnits="userSpaceOnUse">
      <stop offset="0" stop-color="#7c4bc4"/>
      <stop offset=".2" stop-color="#7a49c2"/>
      <stop offset=".27" stop-color="#7542bc"/>
      <stop offset=".32" stop-color="#6d38b3"/>
      <stop offset=".45" stop-color="#6c37b2" stop-opacity=".99"/>
      <stop offset=".5" stop-color="#6b36b0" stop-opacity=".96"/>
      <stop offset=".53" stop-color="#6833ac" stop-opacity=".91"/>
      <stop offset=".56" stop-color="#6430a7" stop-opacity=".84"/>
      <stop offset=".58" stop-color="#602ba0" stop-opacity=".74"/>
      <stop offset=".59" stop-color="#5e2a9e" stop-opacity=".7"/>
      <stop offset=".77" stop-color="#5d299c" stop-opacity=".69"/>
      <stop offset=".84" stop-color="#5a2896" stop-opacity=".66"/>
      <stop offset=".88" stop-color="#56268d" stop-opacity=".6"/>
      <stop offset=".92" stop-color="#4f227f" stop-opacity=".51"/>
      <stop offset=".95" stop-color="#471e6d" stop-opacity=".4"/>
      <stop offset=".98" stop-color="#3d1958" stop-opacity=".27"/>
      <stop offset=".98" stop-color="#3c1955" stop-opacity=".25"/>
      <stop offset=".99" stop-color="#37174e" stop-opacity=".23"/>
      <stop offset=".99" stop-color="#271236" stop-opacity=".15"/>
      <stop offset=".99" stop-color="#0b0a0c" stop-opacity="0"/>
      <stop offset=".99" stop-color="#0a0a0a" stop-opacity="0"/>
    </linearGradient>
    <linearGradient id="linear-gradient-2" x1="788.26" y1="871.12" x2="788.26" y2="999.79" xlink:href="#linear-gradient"/>
    <linearGradient id="linear-gradient-3" x1="897.16" y1="871.21" x2="897.16" y2="1000.05" xlink:href="#linear-gradient"/>
    <linearGradient id="linear-gradient-4" x1="1008.39" y1="869.89" x2="1008.39" y2="1001.37" xlink:href="#linear-gradient"/>
    <linearGradient id="linear-gradient-5" x1="1118.82" y1="869.89" x2="1118.82" y2="1001.37" xlink:href="#linear-gradient"/>
    <linearGradient id="linear-gradient-6" x1="561.69" y1="1032.44" x2="561.69" y2="1160.05" xlink:href="#linear-gradient"/>
    <linearGradient id="linear-gradient-7" x1="676.88" y1="1031.21" x2="676.88" y2="1160.05" xlink:href="#linear-gradient"/>
    <linearGradient id="linear-gradient-8" x1="790.44" y1="1031.21" x2="790.44" y2="1159.44" xlink:href="#linear-gradient"/>
    <linearGradient id="linear-gradient-9" x1="903.16" y1="1031.21" x2="903.16" y2="1159.44" xlink:href="#linear-gradient"/>
    <linearGradient id="linear-gradient-10" x1="1015.27" y1="1034.72" x2="1015.27" y2="1161.81" xlink:href="#linear-gradient"/>
    <linearGradient id="linear-gradient-11" x1="1133.39" y1="1032" x2="1133.39" y2="1160.49" xlink:href="#linear-gradient"/>
    <linearGradient id="linear-gradient-12" x1="1236.63" y1="1029.62" x2="1236.63" y2="1159.35" xlink:href="#linear-gradient"/>
  </defs>
  <rect x="500" y="640" width="800" height="800" fill="#0a0a0a"/>
  <ellipse cx="900" cy="650" rx="100" ry="50" fill="url(#radial-gradient)"/>
  <ellipse cx="900" cy="650" rx="300" ry="200" fill="url(#radial-gradient-2)"/>
  <ellipse cx="900" cy="650" rx="500" ry="350" fill="url(#radial-gradient-3)"/>
  <ellipse cx="900" cy="650" rx="700" ry="500" fill="url(#radial-gradient-4)"/>
  <ellipse cx="900" cy="650" rx="900" ry="650" fill="url(#radial-gradient-5)"/>
  <g>
    <text transform="translate(720 857)" fill="silver" font-family="CourierNewPS-BoldMT, &apos;Courier New&apos;" font-size="48" font-weight="700" isolation="isolate"><tspan x="0" y="0">the</tspan></text>
    <g isolation="isolate">
      <path d="M723.53,955.14c0,2.99-.19,5.92-.57,8.79-.38,2.87-.66,5.8-.83,8.79-.41-.41-.87-.75-1.36-1.01-.5-.26-1.01-.4-1.54-.4-.65,0-1.26.21-1.85.62-.59.41-.88.94-.88,1.58,0,.7.34,1.17,1.01,1.41.67.23,1.36.35,2.07.35.58,0,1-.03,1.23-.09,0,.7-.19,1.42-.57,2.15-.38.73-.85,1.45-1.41,2.15-.56.7-1.14,1.36-1.76,1.98s-1.16,1.16-1.63,1.63c-.35.35-.73.85-1.14,1.49-.41.65-.87,1.27-1.36,1.89-.5.62-1.01,1.14-1.54,1.58s-1.05.66-1.58.66c-.59,0-1.05-.16-1.41-.48-.35-.32-.76-.48-1.23-.48-.65,0-1.04.34-1.19,1.01-.15.67-.22,1.33-.22,1.98v1.05c0,.29-.62.67-1.85,1.14-1.23.47-2.71.98-4.44,1.54-1.73.56-3.52,1.11-5.36,1.67-1.85.56-3.38,1.1-4.61,1.63-2.4,1-4.83,1.82-7.29,2.46-2.46.64-5.01.97-7.65.97-1.93,0-3.79-.25-5.58-.75-1.79-.5-3.57-1.05-5.36-1.67-1.79-.62-3.57-1.17-5.36-1.67-1.79-.5-3.65-.75-5.58-.75-.76,0-1.76.12-2.99.35-1.23.23-2.17.59-2.81,1.05-.29.23-.59.66-.88,1.27-.29.62-.65.92-1.05.92-.29,0-.7-.12-1.23-.35-.53-.23-.91-.41-1.14-.53-1.35-.7-2.49-1.63-3.43-2.77-.94-1.14-1.73-2.39-2.37-3.74-.65-1.35-1.11-2.77-1.41-4.26-.29-1.49-.44-2.94-.44-4.35,0-1,.1-1.98.31-2.94.2-.97.31-1.95.31-2.94,0-1.41-.16-2.78-.48-4.13-.32-1.35-.48-2.72-.48-4.13,0-1,.16-1.99.48-2.99.32-1,.48-1.99.48-2.99,0-.76-.18-1.48-.53-2.15-.35-.67-.53-1.39-.53-2.15,0-.53.19-.97.57-1.32.38-.35.57-.76.57-1.23,0-.7-.03-1.41-.09-2.11-.06-.7-.09-1.41-.09-2.11,0-.35.01-.86.04-1.54.03-.67.1-1.33.22-1.98.12-.64.32-1.2.62-1.67.29-.47.7-.7,1.23-.7,1.05,0,2.12.66,3.21,1.98,1.08,1.32,2.08,2.86,2.99,4.61.91,1.76,1.65,3.52,2.24,5.27.58,1.76.88,3.08.88,3.96,0,.29-.12.57-.35.83-.23.26-.53.4-.88.4.23.41.5,1.03.79,1.85.29.82.44,1.46.44,1.93,0,.7-.1,1.38-.31,2.02-.21.65-.31,1.32-.31,2.02,0,.59.13,1.14.4,1.67s.54,1.03.83,1.49c.47.7.88,1.23,1.23,1.58s.73.6,1.14.75c.41.15.86.25,1.36.31.5.06,1.16.12,1.98.18,1.17,1.7,2.49,3.28,3.96,4.75,1.46,1.46,3.05,2.78,4.75,3.96,2.64.59,5.24,1.05,7.82,1.41,2.58.35,5.19.53,7.82.53,2.17,0,4.06-.23,5.67-.7,1.61-.47,3.1-1.08,4.48-1.85,1.38-.76,2.71-1.63,4-2.59,1.29-.97,2.64-1.98,4.04-3.03,1-.7,2.05-1.38,3.16-2.02,1.11-.64,2.2-1.32,3.25-2.02s2.05-1.48,2.99-2.33c.94-.85,1.73-1.83,2.37-2.94.41-.7,1.01-1.42,1.8-2.15.79-.73,1.19-1.54,1.19-2.42,0-.35-.03-.62-.09-.79-.23-1.88-.4-3.71-.48-5.49-.09-1.79-.19-3.62-.31-5.49-.12-1.76-.5-3.09-1.14-4-.65-.91-1.45-1.67-2.42-2.29s-2.01-1.22-3.12-1.8c-1.11-.58-2.2-1.41-3.25-2.46-1.11-1.11-2.36-1.82-3.74-2.11-1.38-.29-2.8-.47-4.26-.53-1.47-.06-2.92-.16-4.35-.31-1.44-.15-2.77-.69-4-1.63-.35-.23-.65-.35-.88-.35-.53,0-1.04.16-1.54.48-.5.32-1.04.48-1.63.48-.88,0-1.77-.12-2.68-.35-.91-.23-1.8-.5-2.68-.79-.88-.29-1.76-.58-2.64-.88-.88-.29-1.76-.5-2.64-.62-1.17-.18-2.12-.29-2.86-.35-.73-.06-1.41-.16-2.02-.31-.62-.15-1.27-.38-1.98-.7-.7-.32-1.58-.83-2.64-1.54-3.05-1.99-6.3-3.46-9.76-4.39-.65-1.64-1.49-3.31-2.55-5.01-.65-.41-1.27-.8-1.89-1.19-.62-.38-1.22-.8-1.8-1.27-.35-.58-.81-1.61-1.36-3.08-.56-1.46-1.1-3.03-1.63-4.7s-.98-3.24-1.36-4.7c-.38-1.46-.57-2.52-.57-3.16,0-1.35.15-2.64.44-3.87.29-1.23.97-2.34,2.02-3.34.18-.12.4-.28.66-.48.26-.21.4-.45.4-.75s-.22-.51-.66-.66c-.44-.15-.66-.45-.66-.92,0-.06.03-.16.09-.31.06-.15.09-.28.09-.4.41-1.29,1.02-2.52,1.85-3.69.82-1.17,1.76-2.29,2.81-3.34s2.15-2.04,3.3-2.94c1.14-.91,2.24-1.74,3.3-2.5.76-.53,1.42-1.2,1.98-2.02.56-.82,1.16-1.41,1.8-1.76.41,0,.82-.01,1.23-.04.41-.03.82-.04,1.23-.04.47,0,.89.01,1.27.04.38.03.8.04,1.27.04.64-.23,1.08-.51,1.32-.83.23-.32.47-.63.7-.92.23-.29.54-.53.92-.7.38-.18,1.07-.26,2.07-.26.64,0,1.29.01,1.93.04.64.03,1.29.04,1.93.04,2.23,0,4.44-.03,6.64-.09,2.2-.06,4.41-.09,6.64-.09,1.58,0,3.15.01,4.7.04,1.55.03,3.12.16,4.7.4,1.05.12,2.08.34,3.08.66,1,.32,2.05.48,3.16.48,1.05,0,1.8-.21,2.24-.62.44-.41.79-.85,1.05-1.32.26-.47.57-.91.92-1.32.35-.41.97-.62,1.85-.62,1.23,0,2.5.32,3.82.97,1.32.65,2.56,1.17,3.74,1.58l-.09.35c-.18.53-.26,1.11-.26,1.76,0,1,.16,1.98.48,2.94.32.97.66,1.92,1.01,2.86.35.94.69,1.88,1.01,2.81.32.94.48,1.93.48,2.99,0,.65-.06,1.25-.18,1.8-.12.56-.18,1.16-.18,1.8,0,1.17.23,2.01.7,2.5.47.5.7.95.7,1.36,0,.47-.21.87-.62,1.19-.41.32-.62.81-.62,1.45,0,1.52.09,3.03.26,4.53s.26,3,.26,4.53c0,.53-.02,1.32-.04,2.37-.03,1.05-.15,2.1-.35,3.12-.21,1.03-.53,1.92-.97,2.68-.44.76-1.07,1.14-1.89,1.14-.88,0-1.73-.34-2.55-1.01-.82-.67-1.49-1.33-2.02-1.98-.76-.82-1.32-1.71-1.67-2.68s-.65-1.98-.88-3.03c-.23-1.05-.5-2.09-.79-3.12-.29-1.02-.73-1.98-1.32-2.86-.94-1.35-1.83-2.71-2.68-4.09-.85-1.38-1.69-2.77-2.5-4.17-.65-1.05-1.2-1.79-1.67-2.2-.47-.41-.97-.69-1.49-.83-.53-.15-1.13-.22-1.8-.22s-1.51-.09-2.5-.26c-1.05-.18-2.1-.44-3.12-.79-1.03-.35-2.05-.69-3.08-1.01-1.03-.32-2.07-.62-3.12-.88s-2.11-.4-3.16-.4c-1.7,0-3.43.26-5.19.79s-3.52,1.19-5.27,1.98-3.49,1.61-5.19,2.46c-1.7.85-3.34,1.57-4.92,2.15-1.47,3.11-2.2,6.45-2.2,10.02,0,2.58.29,4.69.88,6.33.58,1.64,1.39,3.03,2.42,4.17,1.02,1.14,2.2,2.15,3.52,3.03s2.71,1.82,4.17,2.81c1.52,1,3.03,1.66,4.53,1.98,1.49.32,3.12.48,4.88.48,1,0,1.98-.03,2.94-.09.97-.06,1.95-.09,2.94-.09,1.11,0,2.17.15,3.16.44,1,.29,1.98.63,2.94,1.01.97.38,1.95.72,2.94,1.01,1,.29,2.02.44,3.08.44,1,0,1.95-.06,2.86-.18.91-.12,1.83-.18,2.77-.18.82,0,1.55.19,2.2.57.64.38,1.29.82,1.93,1.32.64.5,1.3.95,1.98,1.36.67.41,1.42.65,2.24.7,1.17.59,2.14,1.11,2.9,1.58.76.47,1.45.97,2.07,1.49s1.2,1.17,1.76,1.93c.56.76,1.19,1.7,1.89,2.81.64,1.11,1.49,2.08,2.55,2.9,1.05.82,1.9,1.82,2.55,2.99.23.41.38.89.44,1.45.06.56.15,1.08.26,1.58.12.5.31.94.57,1.32.26.38.69.6,1.27.66.06.65.1,1.27.13,1.89.03.62.04,1.25.04,1.89Z" fill="url(#linear-gradient)"/>
      <path d="M838.27,995.04c0,.59-.66,1.05-1.98,1.41s-2.93.62-4.83.79c-1.9.18-3.94.29-6.11.35-2.17.06-4.07.09-5.71.09h-4.13c-1.7,0-3.35.06-4.97.18-1.61.12-3.27.18-4.97.18-.53,0-1.25-.01-2.15-.04-.91-.03-1.79-.16-2.64-.4-.85-.23-1.58-.56-2.2-.97-.62-.41-.92-1.02-.92-1.85,0-.12.16-.7.48-1.76.32-1.05.79-2.18,1.41-3.38.62-1.2,1.36-2.29,2.24-3.25s1.87-1.45,2.99-1.45c.64,0,1.23.09,1.76.26.18-.76.26-1.58.26-2.46,0-1.7-.34-3.25-1.01-4.66-.67-1.41-1.44-2.78-2.29-4.13-.85-1.35-1.69-2.71-2.5-4.09-.82-1.38-1.38-2.89-1.67-4.53-.18-.94-.48-1.74-.92-2.42-.44-.67-.91-1.33-1.41-1.98-.5-.64-.97-1.32-1.41-2.02s-.75-1.55-.92-2.55c-.12-.76-.25-1.33-.4-1.71-.15-.38-.34-.69-.57-.92-.23-.23-.54-.44-.92-.62-.38-.18-.87-.47-1.45-.88-.59-.35-.98-.76-1.19-1.23-.21-.47-.35-.95-.44-1.45-.09-.5-.16-1.02-.22-1.58-.06-.56-.21-1.1-.44-1.63-.47-.23-.89-.44-1.27-.62-.38-.18-.81-.38-1.27-.62-.35-.82-.67-1.74-.97-2.77-.29-1.02-.66-2.01-1.1-2.94-.44-.94-1-1.71-1.67-2.33-.67-.62-1.6-.92-2.77-.92-.76,0-1.54.34-2.33,1.01-.79.67-1.61,1.48-2.46,2.42-.85.94-1.69,1.92-2.5,2.94-.82,1.03-1.64,1.89-2.46,2.59-.06.23-.09.47-.09.7v.7c0,.7.03,1.42.09,2.15.06.73.09,1.45.09,2.15,0,1-.13,1.85-.4,2.55s-.57,1.39-.92,2.07c-.35.67-.66,1.35-.92,2.02-.26.67-.4,1.45-.4,2.33,0,1.88.22,3.75.66,5.62.44,1.88.66,3.75.66,5.62,0,1-.04,1.99-.13,2.99-.09,1-.13,1.99-.13,2.99,0,2.11.38,3.74,1.14,4.88.76,1.14,1.7,2.04,2.81,2.68,1.11.65,2.34,1.1,3.69,1.36,1.35.26,2.58.53,3.69.79,1.11.26,2.05.62,2.81,1.05.76.44,1.14,1.16,1.14,2.15,0,.76-.19,1.58-.57,2.46-.38.88-.89,1.7-1.54,2.46-.65.76-1.36,1.42-2.15,1.98-.79.56-1.57.87-2.33.92-.35.06-.7.09-1.05.09h-1.05c-.88,0-1.76-.1-2.64-.31-.88-.21-1.79-.31-2.72-.31-.76,0-1.51.12-2.24.35-.73.23-1.48.44-2.24.62-1.88.41-3.78.78-5.71,1.1s-3.84.48-5.71.48c-.76,0-1.67-.23-2.72-.7s-2.07-1.08-3.03-1.85c-.97-.76-1.79-1.64-2.46-2.64-.67-1-1.01-2.02-1.01-3.08,0-1.58.56-2.91,1.67-4,1.11-1.08,2.34-1.86,3.69-2.33.53-.94,1.16-1.49,1.89-1.67.73-.18,1.44-.31,2.11-.4.67-.09,1.27-.32,1.8-.7.53-.38.85-1.27.97-2.68.12-1.17.45-2.23,1.01-3.16.56-.94.83-1.96.83-3.08l-.09-.44c-.41-4.1-.83-8.17-1.27-12.22s-.66-8.14-.66-12.3c0-3.87.07-7.75.22-11.65.15-3.9.42-7.78.83-11.65.12-.82.25-1.66.4-2.5.15-.85.22-1.71.22-2.59,0-.94-.23-1.8-.7-2.59-.47-.79-.7-1.68-.7-2.68,0-1.17.07-2.3.22-3.38.15-1.08.22-2.21.22-3.38,0-.82-.07-1.61-.22-2.37-.15-.76-.22-1.52-.22-2.29,0-1.11.03-2.21.09-3.3.06-1.08.09-2.15.09-3.21,0-2.29-.13-4.1-.4-5.45-.26-1.35-.79-2.36-1.58-3.03-.79-.67-1.88-1.11-3.25-1.32-1.38-.21-3.21-.31-5.49-.31-.94,0-1.89-.03-2.86-.09-.97-.06-1.85-.26-2.64-.62s-1.45-.86-1.98-1.54c-.53-.67-.79-1.63-.79-2.86s.28-2.47.83-3.74c.56-1.26,1.33-2.27,2.33-3.03.76-.58,1.95-1.1,3.56-1.54,1.61-.44,3.46-.8,5.54-1.1,2.08-.29,4.28-.51,6.59-.66,2.31-.15,4.57-.26,6.77-.35s4.2-.15,6.02-.18c1.82-.03,3.28-.04,4.39-.04,1.93,0,3.53.12,4.79.35,1.26.23,2.29.7,3.08,1.41s1.35,1.67,1.67,2.9c.32,1.23.48,2.84.48,4.83s-.47,3.78-1.41,5.19c-.94,1.41-2.58,2.11-4.92,2.11-.65,0-1.29-.04-1.93-.13-.65-.09-1.29-.13-1.93-.13-.88,0-1.76.34-2.64,1.01-.88.67-1.66,1.45-2.33,2.33-.67.88-1.22,1.73-1.63,2.55-.41.82-.62,1.41-.62,1.76,0,1,.19,1.98.57,2.94.38.97.57,1.95.57,2.94,0,1.17-.18,2.29-.53,3.34s-.53,2.17-.53,3.34c0,.47.03.89.09,1.27.06.38.15.78.26,1.19.06.47.12,1.23.18,2.29.06,1.05.12,2.24.18,3.56.06,1.32.15,2.67.26,4.04.12,1.38.29,2.64.53,3.78.23,1.14.54,2.08.92,2.81.38.73.89,1.1,1.54,1.1.94,0,2.04-.76,3.3-2.29,1.26-1.52,2.49-3.3,3.69-5.32,1.2-2.02,2.25-4.01,3.16-5.98.91-1.96,1.45-3.38,1.63-4.26,1.17-.53,2.24-1.19,3.21-1.98s1.86-1.63,2.68-2.5c.58-.58,1.48-1.55,2.68-2.9,1.2-1.35,2.42-2.78,3.65-4.31,1.23-1.52,2.3-2.99,3.21-4.39.91-1.41,1.36-2.49,1.36-3.25,0-.88-.23-1.82-.7-2.81-.47-1-.97-2.05-1.49-3.16-.53-1.11-1.03-2.24-1.49-3.38-.47-1.14-.7-2.33-.7-3.56,0-1.05.64-1.9,1.93-2.55,1.29-.64,2.81-1.16,4.57-1.54,1.76-.38,3.53-.64,5.32-.79,1.79-.15,3.18-.22,4.17-.22,4.39,0,8.75.54,13.05,1.63,4.31,1.08,8.45,2.56,12.44,4.44-.65,1.88-1.42,3.25-2.33,4.13-.91.88-1.89,1.52-2.94,1.93-1.05.41-2.2.66-3.43.75s-2.49.23-3.78.44c-1.29.21-2.59.57-3.91,1.1s-2.59,1.44-3.82,2.72c-.94,1-1.82,2.02-2.64,3.08-.82,1.05-1.66,2.08-2.5,3.08-.85,1-1.74,1.95-2.68,2.86-.94.91-2.02,1.71-3.25,2.42v.44c0,2.11-.56,3.99-1.67,5.62-1.11,1.64-2.33,3.31-3.65,5.01-1.32,1.7-2.54,3.55-3.65,5.54-1.11,1.99-1.67,4.39-1.67,7.21,0,1.41.15,2.94.44,4.61.29,1.67.76,3.28,1.41,4.83.64,1.55,1.48,2.94,2.5,4.17,1.02,1.23,2.27,2.11,3.74,2.64,0,.29.06.95.18,1.98.12,1.03.28,2.14.48,3.34.2,1.2.47,2.37.79,3.52.32,1.14.69,1.98,1.1,2.5.35.41.57.76.66,1.05.09.29.15.57.18.83.03.26.06.53.09.79.03.26.13.6.31,1.01.41.29.82.53,1.23.7.41.18.85.38,1.32.62v3.69c.18.53.41.85.7.97.29.12.67.18,1.14.18.35,0,.63.38.83,1.14.2.76.41,1.68.62,2.77.2,1.08.42,2.21.66,3.38.23,1.17.58,2.14,1.05,2.9.58,1,1.1,2.05,1.54,3.16.44,1.11.88,2.21,1.32,3.3.44,1.08.92,2.15,1.45,3.21s1.17,1.99,1.93,2.81c1.11,1.23,2.5,2.21,4.17,2.94,1.67.73,3.27,1.25,4.79,1.54.41.12,1.11.37,2.11.75,1,.38,2.01.83,3.03,1.36,1.02.53,1.92,1.08,2.68,1.67.76.59,1.14,1.11,1.14,1.58Z" fill="url(#linear-gradient-2)"/>
      <path d="M949.94,880.17c0,.7-.26,1.3-.79,1.8-.53.5-1.16.92-1.89,1.27-.73.35-1.48.67-2.24.97-.76.29-1.41.56-1.93.79-.47.23-.87.5-1.19.79-.32.29-.65.6-.97.92s-.67.6-1.05.83c-.38.23-.87.44-1.45.62-.76.18-1.44.26-2.02.26s-1.14.04-1.67.13-1,.31-1.41.66c-.41.35-.82.97-1.23,1.85-.35.76-.6,1.66-.75,2.68-.15,1.03-.37,2.01-.66,2.94-.29.94-.72,1.73-1.27,2.37-.56.65-1.42.97-2.59.97,0,.65.22,1.3.66,1.98.44.67.91,1.33,1.41,1.98.5.65.95,1.3,1.36,1.98.41.67.62,1.33.62,1.98,0,.7-.15,1.38-.44,2.02-.29.65-.44,1.32-.44,2.02l-.09,5.36c-.06,1.17.16,2.33.66,3.47.5,1.14.75,2.33.75,3.56,0,.7-.15,1.39-.44,2.07-.29.67-.44,1.39-.44,2.15,0,2.46.25,4.91.75,7.34.5,2.43.75,4.94.75,7.51,0,1.7-.15,3.53-.44,5.49-.29,1.96-1,3.62-2.11,4.97.06.82.23,1.51.53,2.07.29.56.58,1.14.88,1.76.29.62.57,1.29.83,2.02.26.73.4,1.68.4,2.86,0,1.05-.1,2.45-.31,4.17-.21,1.73-.57,3.4-1.1,5.01-.53,1.61-1.25,3.02-2.15,4.22-.91,1.2-2.07,1.8-3.47,1.8-.12,0-.22-.01-.31-.04-.09-.03-.19-.04-.31-.04l-.09.53v.26c0,.82.25,1.55.75,2.2.5.65.75,1.38.75,2.2,0,.41-.25.94-.75,1.58-.5.65-1.1,1.32-1.8,2.02s-1.42,1.38-2.15,2.02c-.73.65-1.33,1.2-1.8,1.67-.53.53-.92,1.04-1.19,1.54-.26.5-.53.94-.79,1.32-.26.38-.62.7-1.05.97s-1.1.48-1.98.66c-1.52.29-2.87.73-4.04,1.32-1.17.59-2.32,1.19-3.43,1.8-1.11.62-2.32,1.14-3.6,1.58-1.29.44-2.84.66-4.66.66-1,0-1.96-.12-2.9-.35-.94-.23-1.88-.51-2.81-.83-.94-.32-1.89-.6-2.86-.83-.97-.23-1.92-.35-2.86-.35-.76,0-1.51.04-2.24.13-.73.09-1.48.13-2.24.13-.59,0-1.04-.03-1.36-.09-.32-.06-.69-.29-1.1-.7-.29-.35-.75-.67-1.36-.97-.62-.29-1.27-.57-1.98-.83s-1.41-.5-2.11-.7c-.7-.21-1.29-.37-1.76-.48-1.05-.29-2.07-.88-3.03-1.76s-1.85-1.89-2.64-3.03-1.49-2.33-2.11-3.56-1.1-2.34-1.45-3.34c-.7-1.99-1.2-4.03-1.49-6.11-.29-2.08-.53-4.16-.7-6.24-.18-2.08-.37-4.16-.57-6.24-.21-2.08-.57-4.14-1.1-6.2-.23-.82-.48-1.66-.75-2.5-.26-.85-.4-1.71-.4-2.59,0-.64.06-1.27.18-1.89.12-.62.23-1.24.35-1.89.47-2.46.83-4.95,1.1-7.47.26-2.52.4-5.04.4-7.56,0-3.34-.16-6.65-.48-9.93-.32-3.28-.48-6.59-.48-9.93v-1.85c0-.58.03-1.2.09-1.85.12-1.17.37-2.31.75-3.43.38-1.11.57-2.25.57-3.43,0-.41-.06-.79-.18-1.14-.12-.35-.23-.73-.35-1.14-.7-1.52-1.11-2.91-1.23-4.17-.12-1.26-.23-2.71-.35-4.35-.23-2.52-.75-4.31-1.54-5.36s-1.79-1.82-2.99-2.29c-1.2-.47-2.52-.86-3.96-1.19-1.44-.32-2.94-1.07-4.53-2.24-.47-.29-.87-.66-1.19-1.1-.32-.44-.48-.92-.48-1.45,0-.94.51-1.79,1.54-2.55,1.02-.76,2.24-1.38,3.65-1.85,1.41-.47,2.81-.83,4.22-1.1s2.49-.4,3.25-.4c.94,0,1.83.12,2.68.35.85.23,1.74.35,2.68.35,1.87,0,3.69-.22,5.45-.66s3.57-.66,5.45-.66c.76,0,1.93.15,3.52.44,1.58.29,3.16.72,4.75,1.27,1.58.56,2.97,1.23,4.17,2.02,1.2.79,1.8,1.68,1.8,2.68,0,1.29-.4,2.5-1.19,3.65s-1.77,2.24-2.94,3.3c-1.17,1.05-2.45,2.14-3.82,3.25-1.38,1.11-2.65,2.32-3.82,3.6-1.17,1.29-2.15,2.74-2.94,4.35-.79,1.61-1.19,3.41-1.19,5.41,0,1.17.04,2.36.13,3.56.09,1.2.13,2.39.13,3.56,0,2.34-.22,4.66-.66,6.94s-.66,4.63-.66,7.03c0,1.93.28,3.68.83,5.23.56,1.55.83,2.77.83,3.65,0,.94-.1,1.8-.31,2.59-.21.79-.31,1.63-.31,2.5,0,.41.01.79.04,1.14.03.35.04.73.04,1.14,0,.94-.13,1.7-.4,2.29-.26.59-.54,1.11-.83,1.58-.29.47-.59.91-.88,1.32-.29.41-.44.88-.44,1.41.29-.23.58-.44.88-.62.29-.18.62-.26.97-.26.41,0,.73.15.97.44.23.29.42.63.57,1.01.15.38.25.79.31,1.23.06.44.09.81.09,1.1,0,1.52.22,3.02.66,4.48.44,1.46.66,2.96.66,4.48,0,1.35-.12,2.71-.35,4.09-.23,1.38-.35,2.77-.35,4.17s.1,2.59.31,3.74c.2,1.14.98,2.07,2.33,2.77.23.12.5.47.79,1.05.29.59.6,1.22.92,1.89.32.67.66,1.35,1.01,2.02.35.67.7,1.16,1.05,1.45.7.65,1.46,1.17,2.29,1.58.82.41,1.65.81,2.5,1.19.85.38,1.67.79,2.46,1.23s1.51,1.04,2.15,1.8c.53.65,1.2,1.22,2.02,1.71.82.5,1.63,1.03,2.42,1.58.79.56,1.48,1.16,2.07,1.8.58.65.88,1.44.88,2.37,0-.76.12-1.38.35-1.85.06.18.09.44.09.79,0,.47-.12.82-.35,1.05.18-.18.38-.47.62-.88.23-.41.47-.82.7-1.23.23-.41.47-.76.7-1.05.23-.29.5-.44.79-.44.41,0,.79.15,1.14.44.35.29.53.67.53,1.14,0,.59-.12,1.14-.35,1.67-.23.53-.38,1.08-.44,1.67.58,0,1.19-.13,1.8-.4s1.19-.6,1.71-1.01c.53-.41.95-.89,1.27-1.45.32-.56.48-1.16.48-1.8,0-.76-.22-1.24-.66-1.45-.44-.21-.98-.31-1.63-.31-.47,0-.92.03-1.36.09-.44.06-.89.09-1.36.09h-.26c.29-.88.73-1.61,1.32-2.2.58-.58,1.26-1.07,2.02-1.45.76-.38,1.55-.7,2.37-.97.82-.26,1.61-.54,2.37-.83,1.23-.47,2.23-1.1,2.99-1.89.76-.79,1.46-1.63,2.11-2.5.64-.88,1.29-1.77,1.93-2.68.64-.91,1.43-1.74,2.37-2.5.06-.41.09-.79.09-1.14v-1.05c0-1.23-.04-2.45-.13-3.65-.09-1.2-.13-2.42-.13-3.65,0-1.35.19-2.69.57-4.04.38-1.35.57-2.69.57-4.04,0-1.17-.15-2.3-.44-3.38-.29-1.08-.44-2.21-.44-3.38,0-1.05.15-2.09.44-3.12.29-1.02.44-2.07.44-3.12,0-1.7-.15-3.35-.44-4.97-.29-1.61-.44-3.24-.44-4.88,0-2.23.19-4.39.57-6.5.38-2.11.57-4.25.57-6.42,0-2.81-.25-5.57-.75-8.26-.5-2.69-.75-5.45-.75-8.26,0-.41.01-.95.04-1.63.03-.67.12-1.35.26-2.02.15-.67.37-1.26.66-1.76.29-.5.73-.75,1.32-.75-.53-.06-1.19-.42-1.98-1.1-.79-.67-1.55-1.44-2.29-2.29-.73-.85-1.38-1.7-1.93-2.55-.56-.85-.83-1.51-.83-1.98-.29.06-.57.1-.83.13-.26.03-.54.04-.83.04-.82,0-1.6-.15-2.33-.44-.73-.29-1.45-.6-2.15-.92-.7-.32-1.44-.63-2.2-.92-.76-.29-1.58-.44-2.46-.44h-.44c-.24-1.46-.6-2.87-1.1-4.22-.5-1.35-.75-2.78-.75-4.31,0-1.17.31-2.11.92-2.81s1.39-1.24,2.33-1.63c.94-.38,1.95-.63,3.03-.75,1.08-.12,2.07-.18,2.94-.18,1.64,0,3.25.09,4.83.26s3.19.26,4.83.26c1.23,0,2.37-.28,3.43-.83,1.05-.56,2.17-.83,3.34-.83.64,0,1.32.13,2.02.4s1.42.57,2.15.92c.73.35,1.48.69,2.24,1.01.76.32,1.49.54,2.2.66,1.11.18,2.3.26,3.56.26s2.5.06,3.74.18c1.23.12,2.4.34,3.52.66,1.11.32,2.14.89,3.08,1.71.47.41.89.88,1.27,1.41.38.53.57,1.11.57,1.76Z" fill="url(#linear-gradient-3)"/>
      <path d="M1058.62,974.57c0,.76-.15,1.46-.44,2.11-.29.65-.44,1.35-.44,2.11,0,.59.12,1.16.35,1.71.23.56.35,1.13.35,1.71,0,.47-.09,1.22-.26,2.24-.18,1.03-.39,2.1-.66,3.21-.26,1.11-.54,2.15-.84,3.12s-.56,1.63-.79,1.98h-2.55c-.23,1.23-.64,2.49-1.23,3.78-2.23,1.05-4.13,1.73-5.71,2.02-1.58.29-3.28.44-5.1.44-.82,0-1.68-.01-2.59-.04-.91-.03-1.89-.04-2.95-.04-1.93,0-3.63.1-5.1.31-1.46.21-3.05.8-4.75,1.8-.53.23-1.08.35-1.67.35-1.11,0-2.21-.12-3.29-.35-1.09-.23-2.15-.5-3.21-.79-1.05-.29-2.12-.56-3.21-.79-1.09-.23-2.18-.35-3.3-.35-1.58,0-3.16-.16-4.75-.48-1.58-.32-3.16-.48-4.75-.48-1.17,0-2.31.1-3.43.31-1.11.21-2.24.44-3.38.7s-2.27.5-3.38.7c-1.11.21-2.26.31-3.43.31-1.05,0-2.08-.12-3.08-.35-1-.23-2.02-.35-3.08-.35-1.88,0-3.73.16-5.58.48-1.85.32-3.71.48-5.58.48-2.46,0-4.5-.6-6.11-1.8-1.61-1.2-2.42-3.12-2.42-5.76,0-1.05.23-1.99.7-2.81,1.35-2.46,2.74-4.23,4.18-5.32,1.43-1.08,2.81-1.86,4.13-2.33,1.32-.47,2.56-.79,3.73-.97s2.2-.56,3.08-1.14c.88-.58,1.57-1.58,2.07-2.99.5-1.41.75-3.57.75-6.5,0-3.46-.28-6.87-.83-10.24-.56-3.37-.84-6.81-.84-10.33,0-1.7.18-3.37.53-5.01.35-1.64.53-3.31.53-5.01,0-2.93-.13-5.81-.39-8.66-.26-2.84-.4-5.7-.4-8.57,0-1.99-.26-3.94-.79-5.84-.53-1.9-.79-3.85-.79-5.84,0-1.17.12-2.3.35-3.38.23-1.08.35-2.18.35-3.3,0-1.7-.09-3.4-.26-5.1-.18-1.7-.32-3.4-.44-5.1-.06-.94-.19-1.86-.39-2.77-.21-.91-.54-1.7-1.01-2.37-.47-.67-1.08-1.22-1.85-1.63-.76-.41-1.7-.62-2.81-.62-1.05,0-2.1.18-3.12.53-1.03.35-2.1.53-3.21.53-.64,0-1.26-.06-1.85-.18-.59-.12-1.17-.26-1.76-.44-.29-.41-.54-.88-.75-1.41-.21-.53-.43-1.04-.66-1.54-.23-.5-.53-.94-.88-1.32-.35-.38-.85-.63-1.49-.75.59-.88,1.14-2.02,1.67-3.43s1.13-2.75,1.8-4.04c.67-1.29,1.48-2.4,2.42-3.34.94-.94,2.08-1.41,3.43-1.41,1.11,0,2.15.26,3.12.79s2.01.79,3.12.79c1.41,0,2.75-.29,4.04-.88,1.29-.58,2.67-.88,4.13-.88,1.17,0,2.23.41,3.16,1.23,1.05-.29,2.02-.44,2.9-.44.59,0,1.16.09,1.71.26.56.18,1.13.26,1.71.26,1.76,0,3.47-.25,5.14-.75,1.67-.5,3.38-.75,5.14-.75,1.41,0,2.75.21,4.04.62,1.29.41,2.55.89,3.78,1.45,1.23.56,2.46,1.13,3.69,1.71,1.23.59,2.52,1.03,3.87,1.32.06.29.1.54.13.75.03.21.04.45.04.75v.35l-.09.35c-.06,1.11-.26,2.21-.62,3.3-.35,1.08-.62,2.15-.79,3.21-.29,1.41-.81,2.3-1.54,2.68-.73.38-1.63.57-2.68.57-.47,0-.97-.01-1.49-.04-.53-.03-1.03-.04-1.49-.04-2.17,0-4.32.16-6.46.48-2.14.32-4.23.81-6.29,1.45-.59,1.11-.88,2.34-.88,3.69,0,1.05.12,2.11.35,3.16s.41,2.11.53,3.16c-.64-.12-1.22-.28-1.71-.48-.5-.21-1.07-.31-1.71-.31-.47,0-.89.26-1.27.79-.38.53-.57,1.03-.57,1.49,0,.41.15.76.44,1.05.29.29.64.53,1.05.7s.85.29,1.32.35c.47.06.85.09,1.14.09l.09,1.76c0,2.17-.25,4.29-.75,6.37-.5,2.08-.75,4.21-.75,6.37,0,.65.07,1.29.22,1.93.14.65.22,1.29.22,1.93,0,.76-.22,1.23-.66,1.41s-.91.26-1.41.26-.97.03-1.41.09c-.44.06-.66.32-.66.79,0,.18.03.32.09.44-.23.47-.35.88-.35,1.23,0,.53.21.85.62.97.41.12.85.19,1.32.22.47.03.91.09,1.32.18s.62.34.62.75c0,.65-.09,1.25-.26,1.8-.18.56-.26,1.13-.26,1.71,0,1.58.32,3.11.97,4.57.64,1.46.97,2.99.97,4.57,0,1.41-.19,2.8-.57,4.17-.38,1.38-.57,2.77-.57,4.17,0,.88.13,1.74.4,2.59.26.85.56,1.7.88,2.55.32.85.62,1.7.88,2.55.26.85.39,1.71.39,2.59,0,1.23-.21,2.43-.62,3.6-.41,1.17-.62,2.37-.62,3.6,0,.29.06.73.18,1.32.23,1.35.45,2.94.66,4.79.2,1.85.57,3.6,1.1,5.27s1.32,3.09,2.37,4.26c1.05,1.17,2.55,1.76,4.48,1.76,1.82,0,3.57-.28,5.27-.83,1.7-.56,3.46-.83,5.27-.83,1.11,0,2.21.13,3.3.4,1.08.26,2.15.57,3.21.92s2.12.66,3.21.92c1.08.26,2.21.4,3.38.4,1.76,0,3.5-.21,5.23-.62,1.73-.41,3.47-.76,5.23-1.05,2.46-.47,4.31-1.3,5.54-2.5,1.23-1.2,1.85-3.12,1.85-5.76s-.31-5.2-.92-7.69c-.62-2.49-.92-5.05-.92-7.69,0-1.58.23-3.12.7-4.61s1.2-2.83,2.2-4c1.41-.47,2.81-.7,4.22-.7,2.58,0,4.39.83,5.45,2.5s1.58,3.65,1.58,5.93c0,1-.21,1.68-.62,2.07-.41.38-.62.75-.62,1.1,0,.12.12.28.35.48.23.21.5.45.79.75.29.29.56.65.79,1.05.23.41.35.85.35,1.32,0,.41-.18.7-.53.88,0,.65-.03,1.44-.09,2.37-.06.94-.1,1.88-.13,2.81-.03.94-.02,1.82.04,2.64.06.82.21,1.44.44,1.85l.7-.62Z" fill="url(#linear-gradient-4)"/>
      <path d="M1169.05,974.57c0,.76-.15,1.46-.44,2.11-.29.65-.44,1.35-.44,2.11,0,.59.12,1.16.35,1.71.23.56.35,1.13.35,1.71,0,.47-.09,1.22-.26,2.24-.18,1.03-.4,2.1-.66,3.21-.26,1.11-.54,2.15-.83,3.12-.29.97-.56,1.63-.79,1.98h-2.55c-.23,1.23-.65,2.49-1.23,3.78-2.23,1.05-4.13,1.73-5.71,2.02-1.58.29-3.28.44-5.1.44-.82,0-1.69-.01-2.59-.04-.91-.03-1.89-.04-2.94-.04-1.93,0-3.63.1-5.1.31-1.46.21-3.05.8-4.75,1.8-.53.23-1.08.35-1.67.35-1.11,0-2.21-.12-3.3-.35-1.08-.23-2.15-.5-3.21-.79-1.05-.29-2.12-.56-3.21-.79-1.08-.23-2.18-.35-3.3-.35-1.58,0-3.16-.16-4.75-.48-1.58-.32-3.16-.48-4.75-.48-1.17,0-2.32.1-3.43.31-1.11.21-2.24.44-3.38.7s-2.27.5-3.38.7c-1.11.21-2.26.31-3.43.31-1.05,0-2.08-.12-3.08-.35-1-.23-2.02-.35-3.08-.35-1.88,0-3.74.16-5.58.48-1.85.32-3.71.48-5.58.48-2.46,0-4.5-.6-6.11-1.8-1.61-1.2-2.42-3.12-2.42-5.76,0-1.05.23-1.99.7-2.81,1.35-2.46,2.74-4.23,4.17-5.32,1.43-1.08,2.81-1.86,4.13-2.33,1.32-.47,2.56-.79,3.74-.97,1.17-.18,2.2-.56,3.08-1.14.88-.58,1.57-1.58,2.07-2.99.5-1.41.75-3.57.75-6.5,0-3.46-.28-6.87-.83-10.24-.56-3.37-.83-6.81-.83-10.33,0-1.7.18-3.37.53-5.01.35-1.64.53-3.31.53-5.01,0-2.93-.13-5.81-.4-8.66-.26-2.84-.4-5.7-.4-8.57,0-1.99-.26-3.94-.79-5.84-.53-1.9-.79-3.85-.79-5.84,0-1.17.12-2.3.35-3.38.23-1.08.35-2.18.35-3.3,0-1.7-.09-3.4-.26-5.1-.18-1.7-.32-3.4-.44-5.1-.06-.94-.19-1.86-.4-2.77-.21-.91-.54-1.7-1.01-2.37-.47-.67-1.08-1.22-1.85-1.63-.76-.41-1.7-.62-2.81-.62-1.05,0-2.1.18-3.12.53-1.03.35-2.1.53-3.21.53-.65,0-1.26-.06-1.85-.18-.59-.12-1.17-.26-1.76-.44-.29-.41-.54-.88-.75-1.41-.21-.53-.43-1.04-.66-1.54-.23-.5-.53-.94-.88-1.32-.35-.38-.85-.63-1.49-.75.58-.88,1.14-2.02,1.67-3.43s1.13-2.75,1.8-4.04c.67-1.29,1.48-2.4,2.42-3.34s2.08-1.41,3.43-1.41c1.11,0,2.15.26,3.12.79s2.01.79,3.12.79c1.41,0,2.75-.29,4.04-.88,1.29-.58,2.67-.88,4.13-.88,1.17,0,2.23.41,3.16,1.23,1.05-.29,2.02-.44,2.9-.44.58,0,1.16.09,1.71.26.56.18,1.13.26,1.71.26,1.76,0,3.47-.25,5.14-.75,1.67-.5,3.38-.75,5.14-.75,1.41,0,2.75.21,4.04.62,1.29.41,2.55.89,3.78,1.45,1.23.56,2.46,1.13,3.69,1.71,1.23.59,2.52,1.03,3.87,1.32.06.29.1.54.13.75.03.21.04.45.04.75v.35l-.09.35c-.06,1.11-.26,2.21-.62,3.3-.35,1.08-.62,2.15-.79,3.21-.29,1.41-.81,2.3-1.54,2.68-.73.38-1.63.57-2.68.57-.47,0-.97-.01-1.49-.04-.53-.03-1.03-.04-1.49-.04-2.17,0-4.32.16-6.46.48-2.14.32-4.23.81-6.28,1.45-.59,1.11-.88,2.34-.88,3.69,0,1.05.12,2.11.35,3.16.23,1.05.41,2.11.53,3.16-.65-.12-1.22-.28-1.71-.48-.5-.21-1.07-.31-1.71-.31-.47,0-.89.26-1.27.79-.38.53-.57,1.03-.57,1.49,0,.41.15.76.44,1.05.29.29.64.53,1.05.7.41.18.85.29,1.32.35.47.06.85.09,1.14.09l.09,1.76c0,2.17-.25,4.29-.75,6.37-.5,2.08-.75,4.21-.75,6.37,0,.65.07,1.29.22,1.93.15.65.22,1.29.22,1.93,0,.76-.22,1.23-.66,1.41s-.91.26-1.41.26-.97.03-1.41.09c-.44.06-.66.32-.66.79,0,.18.03.32.09.44-.23.47-.35.88-.35,1.23,0,.53.21.85.62.97.41.12.85.19,1.32.22.47.03.91.09,1.32.18.41.09.62.34.62.75,0,.65-.09,1.25-.26,1.8-.18.56-.26,1.13-.26,1.71,0,1.58.32,3.11.97,4.57.64,1.46.97,2.99.97,4.57,0,1.41-.19,2.8-.57,4.17-.38,1.38-.57,2.77-.57,4.17,0,.88.13,1.74.4,2.59.26.85.56,1.7.88,2.55.32.85.62,1.7.88,2.55.26.85.4,1.71.4,2.59,0,1.23-.21,2.43-.62,3.6-.41,1.17-.62,2.37-.62,3.6,0,.29.06.73.18,1.32.23,1.35.45,2.94.66,4.79.2,1.85.57,3.6,1.1,5.27s1.32,3.09,2.37,4.26c1.05,1.17,2.55,1.76,4.48,1.76,1.82,0,3.57-.28,5.27-.83,1.7-.56,3.46-.83,5.27-.83,1.11,0,2.21.13,3.3.4,1.08.26,2.15.57,3.21.92s2.12.66,3.21.92c1.08.26,2.21.4,3.38.4,1.76,0,3.5-.21,5.23-.62,1.73-.41,3.47-.76,5.23-1.05,2.46-.47,4.31-1.3,5.54-2.5,1.23-1.2,1.85-3.12,1.85-5.76s-.31-5.2-.92-7.69c-.62-2.49-.92-5.05-.92-7.69,0-1.58.23-3.12.7-4.61.47-1.49,1.2-2.83,2.2-4,1.41-.47,2.81-.7,4.22-.7,2.58,0,4.39.83,5.45,2.5s1.58,3.65,1.58,5.93c0,1-.21,1.68-.62,2.07-.41.38-.62.75-.62,1.1,0,.12.12.28.35.48.23.21.5.45.79.75.29.29.56.65.79,1.05.23.41.35.85.35,1.32,0,.41-.18.7-.53.88,0,.65-.03,1.44-.09,2.37-.06.94-.1,1.88-.13,2.81-.03.94-.01,1.82.04,2.64.06.82.21,1.44.44,1.85l.7-.62Z" fill="url(#linear-gradient-5)"/>
    </g>
    <g isolation="isolate">
      <path d="M609.03,1122.61c0,.41.01.95.04,1.63.03.67.03,1.35,0,2.02-.03.67-.09,1.29-.18,1.85-.09.56-.25.95-.48,1.19-.53.53-1.08.87-1.67,1.01-.59.15-1.19.23-1.8.26-.62.03-1.23.09-1.85.18s-1.22.31-1.8.66c.12.59.4.95.83,1.1.44.15.91.26,1.41.35.5.09.94.26,1.32.53.38.26.57.78.57,1.54,0,1.23-.19,2.24-.57,3.03-.38.79-.83,1.49-1.36,2.11s-1.05,1.25-1.58,1.89c-.53.65-.94,1.46-1.23,2.46-.35,1.05-.79,1.82-1.32,2.29-.53.47-1.1.83-1.71,1.1s-1.25.54-1.89.83c-.65.29-1.26.82-1.85,1.58-.65.7-1.17,1.05-1.58,1.05-.18,0-.38-.03-.62-.09-.23-.06-.53-.09-.88-.09-.29,0-.57.1-.83.31-.26.21-.4.45-.4.75,0,.12.06.18.18.18s.15.03.09.09c-.7.65-1.96,1.39-3.78,2.24-1.82.85-3.9,1.64-6.24,2.37-2.34.73-4.79,1.35-7.34,1.85s-4.97.75-7.25.75c-3.99,0-7.93-.1-11.82-.31-3.9-.21-7.87-.31-11.91-.31h-11.69c-.18,0-.43.18-.75.53-.32.35-.69.53-1.1.53-.65,0-1.48-.09-2.5-.26-1.03-.18-2.04-.47-3.03-.88-1-.41-1.86-.92-2.59-1.54-.73-.62-1.1-1.33-1.1-2.15,0-.29.03-.54.09-.75.06-.21.12-.45.18-.75.53-1.64,1.26-2.89,2.2-3.74.94-.85,1.95-1.58,3.03-2.2,1.08-.62,2.2-1.24,3.34-1.89,1.14-.64,2.17-1.55,3.08-2.72.91-1.17,1.65-2.75,2.24-4.75.58-1.99.88-4.66.88-8,0-3.05-.19-6.06-.57-9.05-.38-2.99-.57-6.01-.57-9.05.06-5.62.19-11.19.4-16.7.2-5.51.34-11.07.4-16.7l.09-13.8c0-1.46-.04-3.16-.13-5.1s-.38-3.79-.88-5.58c-.5-1.79-1.29-3.31-2.37-4.57-1.08-1.26-2.62-1.98-4.61-2.15-1-.06-2.14-.32-3.43-.79-1.29-.47-2.5-1.1-3.65-1.89s-2.12-1.68-2.94-2.68c-.82-1-1.23-2.08-1.23-3.25,0-1,.29-1.83.88-2.5.58-.67,1.29-1.23,2.11-1.67.82-.44,1.71-.76,2.68-.97.97-.21,1.86-.31,2.68-.31,1.87,0,3.72.19,5.54.57,1.82.38,3.69.57,5.62.57,2.4,0,4.82-.12,7.25-.35,2.43-.23,4.85-.51,7.25-.83,2.4-.32,4.82-.6,7.25-.83,2.43-.23,4.88-.35,7.34-.35,2.05,0,4.1.07,6.15.22,2.05.15,4.1.28,6.15.4.35.47.97.85,1.85,1.14.88.29,1.83.56,2.86.79,1.02.23,2.04.43,3.03.57,1,.15,1.76.28,2.29.4,1.41.29,2.62.6,3.65.92,1.02.32,1.9.76,2.64,1.32.73.56,1.38,1.27,1.93,2.15.56.88,1.07,2.02,1.54,3.43.06.18.34.44.83.79.5.35,1.07.7,1.71,1.05.64.35,1.26.7,1.85,1.05.58.35,1,.65,1.23.88.76.76,1.54,1.92,2.33,3.47.79,1.55,1.51,3.21,2.15,4.97.64,1.76,1.17,3.49,1.58,5.19.41,1.7.62,3.08.62,4.13,0,2.17-.31,4.34-.92,6.5-.62,2.17-1.25,4.28-1.89,6.33-.41,1.23-1.01,2.4-1.8,3.52-.79,1.11-1.57,2.24-2.33,3.38-.76,1.14-1.42,2.3-1.98,3.47-.56,1.17-.83,2.4-.83,3.69,0,1.82.38,3.63,1.14,5.45.76,1.82,1.64,3.49,2.64,5.01.41.7.89,1.38,1.45,2.02.56.65,1.11,1.27,1.67,1.89.56.62,1.07,1.26,1.54,1.93.47.67.88,1.42,1.23,2.24.76,1.88,1.26,3.82,1.49,5.84.23,2.02.35,4.03.35,6.02ZM592.41,1068.91c0-.64-.09-1.41-.26-2.29s-.38-1.77-.62-2.68c-.23-.91-.47-1.82-.7-2.72-.23-.91-.41-1.71-.53-2.42-.18-.88-.44-1.6-.79-2.15-.35-.56-.76-1.02-1.23-1.41-.47-.38-1-.76-1.58-1.14-.59-.38-1.17-.83-1.76-1.36-1.47-1.29-2.87-2.31-4.22-3.08-1.35-.76-2.75-1.35-4.22-1.76-1.47-.41-3.02-.69-4.66-.83-1.64-.15-3.46-.22-5.45-.22-1.29,0-2.62.03-4,.09-1.38.06-2.62.23-3.74.53-.23.12-.38.26-.44.44-.06.18-.19.35-.4.53-.21.18-.57.34-1.1.48-.53.15-1.35.22-2.46.22-1.7,0-3.09.23-4.17.7-1.08.47-1.93,1.13-2.55,1.98-.62.85-1.04,1.88-1.27,3.08-.23,1.2-.38,2.56-.44,4.09-.06,1.93-.1,3.93-.13,5.98-.03,2.05-.13,4.09-.31,6.11s-.48,4-.92,5.93-1.13,3.81-2.07,5.62c3.28.82,6.62,1.46,10.02,1.93,3.4.47,6.74.7,10.02.7,2.29,0,4.58-.09,6.9-.26,2.31-.18,4.58-.47,6.81-.88.82-.18,1.92-.5,3.3-.97,1.38-.47,2.72-1.05,4.04-1.76s2.49-1.49,3.52-2.37c1.02-.88,1.6-1.79,1.71-2.72.12-.7.37-1.35.75-1.93.38-.58.79-1.16,1.23-1.71.44-.56.83-1.13,1.19-1.71.35-.58.53-1.26.53-2.02ZM595.31,1127.62c0-1.52-.19-3.05-.57-4.57-.38-1.52-.69-3.05-.92-4.57-.18-1.41-.34-2.52-.48-3.34-.15-.82-.38-1.54-.7-2.15-.32-.62-.78-1.22-1.36-1.8-.59-.58-1.44-1.35-2.55-2.29-.29-1.29-.6-2.05-.92-2.29-.32-.23-.66-.35-1.01-.35-.29,0-.6.01-.92.04-.32.03-.63.04-.92.04l-1.23-2.46c-1.11-.76-2.1-1.35-2.94-1.76-.85-.41-1.95-.67-3.3-.79-1.17-.12-2.33-.35-3.47-.7s-2.33-.53-3.56-.53c-.53,0-.94.21-1.23.62-.29.41-.53.62-.7.62-.35,0-.76-.07-1.23-.22-.47-.15-.97-.29-1.49-.44-.53-.15-1.07-.29-1.63-.44-.56-.15-1.07-.22-1.54-.22-2.64,0-5.2.28-7.69.83-2.49.56-5,1.16-7.51,1.8-.47,1.23-.92,2.58-1.36,4.04-.44,1.46-.83,2.96-1.19,4.48-.35,1.52-.65,3.03-.88,4.53-.23,1.49-.35,2.89-.35,4.17,0,.65.06,1.16.18,1.54.12.38.26.72.44,1.01.18.29.32.59.44.88.12.29.18.65.18,1.05,0,2.34-.25,4.64-.75,6.9-.5,2.26-.75,4.56-.75,6.9,0,1.52.2,2.99.62,4.39.41,1.41,1.11,2.7,2.11,3.87,1.17,0,2.29.22,3.34.66s2.17.66,3.34.66c.82,0,1.63-.21,2.42-.62.79-.41,1.42-.62,1.89-.62s.83.21,1.1.62c.26.41.72.62,1.36.62h.35c.18-.29.5-.54.97-.75.47-.21,1.01-.35,1.63-.44s1.27-.15,1.98-.18c.7-.03,1.38-.04,2.02-.04,1.23,0,2.18.03,2.86.09.67.06,1.45.09,2.33.09,2.46-.53,4.8-1.17,7.03-1.93,1.87-.64,3.79-1.46,5.76-2.46,1.96-1,3.5-2.17,4.61-3.52.58-.58,1.24-1.32,1.98-2.2.73-.88,1.41-1.8,2.02-2.77s1.14-1.96,1.58-2.99c.44-1.02.66-2.04.66-3.03Z" fill="url(#linear-gradient-6)"/>
      <path d="M729.66,1040.17c0,.7-.26,1.3-.79,1.8-.53.5-1.16.92-1.89,1.27-.73.35-1.48.67-2.24.97-.76.29-1.41.56-1.93.79-.47.23-.87.5-1.19.79-.32.29-.65.6-.97.92-.32.32-.67.6-1.05.83-.38.23-.87.44-1.45.62-.76.18-1.44.26-2.02.26s-1.14.04-1.67.13-1,.31-1.41.66c-.41.35-.82.97-1.23,1.85-.35.76-.6,1.66-.75,2.68-.15,1.03-.37,2.01-.66,2.94-.29.94-.72,1.73-1.27,2.37-.56.65-1.42.97-2.59.97,0,.65.22,1.3.66,1.98.44.67.91,1.33,1.41,1.98.5.65.95,1.3,1.36,1.98.41.67.62,1.33.62,1.98,0,.7-.15,1.38-.44,2.02-.29.65-.44,1.32-.44,2.02l-.09,5.36c-.06,1.17.16,2.33.66,3.47.5,1.14.75,2.33.75,3.56,0,.7-.15,1.39-.44,2.07-.29.67-.44,1.39-.44,2.15,0,2.46.25,4.91.75,7.34.5,2.43.75,4.94.75,7.51,0,1.7-.15,3.53-.44,5.49-.29,1.96-1,3.62-2.11,4.97.06.82.23,1.51.53,2.07.29.56.58,1.14.88,1.76.29.62.57,1.29.83,2.02.26.73.4,1.68.4,2.86,0,1.05-.1,2.45-.31,4.17-.21,1.73-.57,3.4-1.1,5.01-.53,1.61-1.25,3.02-2.15,4.22-.91,1.2-2.07,1.8-3.47,1.8-.12,0-.22-.01-.31-.04-.09-.03-.19-.04-.31-.04l-.09.53v.26c0,.82.25,1.55.75,2.2.5.65.75,1.38.75,2.2,0,.41-.25.94-.75,1.58-.5.65-1.1,1.32-1.8,2.02s-1.42,1.38-2.15,2.02c-.73.65-1.33,1.2-1.8,1.67-.53.53-.92,1.04-1.19,1.54-.26.5-.53.94-.79,1.32-.26.38-.62.7-1.05.97s-1.1.48-1.98.66c-1.52.29-2.87.73-4.04,1.32-1.17.59-2.32,1.19-3.43,1.8-1.11.62-2.32,1.14-3.6,1.58-1.29.44-2.84.66-4.66.66-1,0-1.96-.12-2.9-.35-.94-.23-1.88-.51-2.81-.83-.94-.32-1.89-.6-2.86-.83-.97-.23-1.92-.35-2.86-.35-.76,0-1.51.04-2.24.13-.73.09-1.48.13-2.24.13-.59,0-1.04-.03-1.36-.09-.32-.06-.69-.29-1.1-.7-.29-.35-.75-.67-1.36-.97-.62-.29-1.27-.57-1.98-.83s-1.41-.5-2.11-.7c-.7-.21-1.29-.37-1.76-.48-1.05-.29-2.07-.88-3.03-1.76s-1.85-1.89-2.64-3.03-1.49-2.33-2.11-3.56-1.1-2.34-1.45-3.34c-.7-1.99-1.2-4.03-1.49-6.11-.29-2.08-.53-4.16-.7-6.24-.18-2.08-.37-4.16-.57-6.24-.21-2.08-.57-4.14-1.1-6.2-.23-.82-.48-1.66-.75-2.5-.26-.85-.4-1.71-.4-2.59,0-.64.06-1.27.18-1.89.12-.62.23-1.24.35-1.89.47-2.46.83-4.95,1.1-7.47.26-2.52.4-5.04.4-7.56,0-3.34-.16-6.65-.48-9.93-.32-3.28-.48-6.59-.48-9.93v-1.85c0-.58.03-1.2.09-1.85.12-1.17.37-2.31.75-3.43.38-1.11.57-2.25.57-3.43,0-.41-.06-.79-.18-1.14-.12-.35-.23-.73-.35-1.14-.7-1.52-1.11-2.91-1.23-4.17-.12-1.26-.23-2.71-.35-4.35-.23-2.52-.75-4.31-1.54-5.36s-1.79-1.82-2.99-2.29c-1.2-.47-2.52-.86-3.96-1.19-1.44-.32-2.94-1.07-4.53-2.24-.47-.29-.87-.66-1.19-1.1-.32-.44-.48-.92-.48-1.45,0-.94.51-1.79,1.54-2.55,1.02-.76,2.24-1.38,3.65-1.85,1.41-.47,2.81-.83,4.22-1.1s2.49-.4,3.25-.4c.94,0,1.83.12,2.68.35.85.23,1.74.35,2.68.35,1.87,0,3.69-.22,5.45-.66s3.57-.66,5.45-.66c.76,0,1.93.15,3.52.44,1.58.29,3.16.72,4.75,1.27,1.58.56,2.97,1.23,4.17,2.02,1.2.79,1.8,1.68,1.8,2.68,0,1.29-.4,2.5-1.19,3.65s-1.77,2.24-2.94,3.3c-1.17,1.05-2.45,2.14-3.82,3.25-1.38,1.11-2.65,2.32-3.82,3.6-1.17,1.29-2.15,2.74-2.94,4.35-.79,1.61-1.19,3.41-1.19,5.41,0,1.17.04,2.36.13,3.56.09,1.2.13,2.39.13,3.56,0,2.34-.22,4.66-.66,6.94s-.66,4.63-.66,7.03c0,1.93.28,3.68.83,5.23.56,1.55.83,2.77.83,3.65,0,.94-.1,1.8-.31,2.59-.21.79-.31,1.63-.31,2.5,0,.41.01.79.04,1.14.03.35.04.73.04,1.14,0,.94-.13,1.7-.4,2.29-.26.59-.54,1.11-.83,1.58-.29.47-.59.91-.88,1.32-.29.41-.44.88-.44,1.41.29-.23.58-.44.88-.62.29-.18.62-.26.97-.26.41,0,.73.15.97.44.23.29.42.63.57,1.01.15.38.25.79.31,1.23.06.44.09.81.09,1.1,0,1.52.22,3.02.66,4.48.44,1.46.66,2.96.66,4.48,0,1.35-.12,2.71-.35,4.09-.23,1.38-.35,2.77-.35,4.17s.1,2.59.31,3.74c.2,1.14.98,2.07,2.33,2.77.23.12.5.47.79,1.05.29.59.6,1.22.92,1.89.32.67.66,1.35,1.01,2.02.35.67.7,1.16,1.05,1.45.7.65,1.46,1.17,2.29,1.58.82.41,1.65.81,2.5,1.19.85.38,1.67.79,2.46,1.23s1.51,1.04,2.15,1.8c.53.65,1.2,1.22,2.02,1.71.82.5,1.63,1.03,2.42,1.58.79.56,1.48,1.16,2.07,1.8.58.65.88,1.44.88,2.37,0-.76.12-1.38.35-1.85.06.18.09.44.09.79,0,.47-.12.82-.35,1.05.18-.18.38-.47.62-.88.23-.41.47-.82.7-1.23.23-.41.47-.76.7-1.05.23-.29.5-.44.79-.44.41,0,.79.15,1.14.44.35.29.53.67.53,1.14,0,.59-.12,1.14-.35,1.67-.23.53-.38,1.08-.44,1.67.58,0,1.19-.13,1.8-.4s1.19-.6,1.71-1.01c.53-.41.95-.89,1.27-1.45.32-.56.48-1.16.48-1.8,0-.76-.22-1.24-.66-1.45-.44-.21-.98-.31-1.63-.31-.47,0-.92.03-1.36.09-.44.06-.89.09-1.36.09h-.26c.29-.88.73-1.61,1.32-2.2.58-.58,1.26-1.07,2.02-1.45.76-.38,1.55-.7,2.37-.97.82-.26,1.61-.54,2.37-.83,1.23-.47,2.23-1.1,2.99-1.89.76-.79,1.46-1.63,2.11-2.5.64-.88,1.29-1.77,1.93-2.68.64-.91,1.44-1.74,2.37-2.5.06-.41.09-.79.09-1.14v-1.05c0-1.23-.04-2.45-.13-3.65-.09-1.2-.13-2.42-.13-3.65,0-1.35.19-2.69.57-4.04.38-1.35.57-2.69.57-4.04,0-1.17-.15-2.3-.44-3.38-.29-1.08-.44-2.21-.44-3.38,0-1.05.15-2.09.44-3.12.29-1.02.44-2.07.44-3.12,0-1.7-.15-3.35-.44-4.97-.29-1.61-.44-3.24-.44-4.88,0-2.23.19-4.39.57-6.5.38-2.11.57-4.25.57-6.42,0-2.81-.25-5.57-.75-8.26-.5-2.69-.75-5.45-.75-8.26,0-.41.01-.95.04-1.63.03-.67.12-1.35.26-2.02.15-.67.37-1.26.66-1.76.29-.5.73-.75,1.32-.75-.53-.06-1.19-.42-1.98-1.1-.79-.67-1.55-1.44-2.29-2.29-.73-.85-1.38-1.7-1.93-2.55-.56-.85-.83-1.51-.83-1.98-.29.06-.57.1-.83.13-.26.03-.54.04-.83.04-.82,0-1.6-.15-2.33-.44-.73-.29-1.45-.6-2.15-.92-.7-.32-1.44-.63-2.2-.92-.76-.29-1.58-.44-2.46-.44h-.44c-.23-1.46-.6-2.87-1.1-4.22-.5-1.35-.75-2.78-.75-4.31,0-1.17.31-2.11.92-2.81s1.39-1.24,2.33-1.63c.94-.38,1.95-.63,3.03-.75,1.08-.12,2.07-.18,2.94-.18,1.64,0,3.25.09,4.83.26s3.19.26,4.83.26c1.23,0,2.37-.28,3.43-.83,1.05-.56,2.17-.83,3.34-.83.64,0,1.32.13,2.02.4s1.42.57,2.15.92c.73.35,1.48.69,2.24,1.01.76.32,1.49.54,2.2.66,1.11.18,2.3.26,3.56.26s2.5.06,3.74.18c1.23.12,2.4.34,3.52.66,1.11.32,2.14.89,3.08,1.71.47.41.89.88,1.27,1.41.38.53.57,1.11.57,1.76Z" fill="url(#linear-gradient-7)"/>
      <path d="M839.04,1099.5c0,.35-.06.87-.18,1.54-.12.67-.29,1.33-.53,1.98-.23.65-.53,1.22-.88,1.71-.35.5-.76.75-1.23.75-.23,0-.44-.03-.62-.09-.18-.06-.38-.09-.62-.09-.41,0-.78.19-1.1.57-.32.38-.67.82-1.05,1.32-.38.5-.82.94-1.32,1.32-.5.38-1.13.57-1.89.57-.29,0-.73-.06-1.32-.18.23,1.17.41,2.34.53,3.52.12,1.17.18,2.34.18,3.52,0,1.88-.12,3.71-.35,5.49-.23,1.79-.5,3.59-.79,5.41-.29,1.82-.56,3.63-.79,5.45-.23,1.82-.35,3.63-.35,5.45,0,2.17.16,4.31.48,6.42.32,2.11.48,4.25.48,6.42,0,.94-.09,1.92-.26,2.94-.18,1.03-.48,1.98-.92,2.86s-1.04,1.61-1.8,2.2c-.76.58-1.7.88-2.81.88-1.64,0-2.92-.51-3.82-1.54-.91-1.02-1.67-2.14-2.29-3.34-.62-1.2-1.17-2.31-1.67-3.34-.5-1.02-1.16-1.54-1.98-1.54-.41,0-.92.22-1.54.66s-1.3.95-2.07,1.54c-.76.59-1.6,1.14-2.5,1.67-.91.53-1.83.88-2.77,1.05-1.11.23-1.88.56-2.29.97-.41.41-.82.81-1.23,1.19-.41.38-1.01.72-1.8,1.01-.79.29-2.15.44-4.09.44-1.29,0-2.56-.06-3.82-.18-1.26-.12-2.54-.18-3.82-.18-.94,0-1.86.06-2.77.18-.91.12-1.83.18-2.77.18-1.47,0-2.67-.13-3.6-.4-.94-.26-1.77-.6-2.5-1.01-.73-.41-1.49-.83-2.29-1.27s-1.8-.83-3.03-1.19c-.94-.29-1.7-.54-2.29-.75-.59-.21-1.11-.44-1.58-.7-.47-.26-.94-.58-1.41-.97-.47-.38-1.08-.89-1.85-1.54-.47-.35-1-.7-1.58-1.05-.59-.35-1.14-.72-1.67-1.1-.53-.38-.98-.8-1.36-1.27-.38-.47-.6-1.05-.66-1.76-.06-.53-.15-.91-.26-1.14-.12-.23-.28-.41-.48-.53-.21-.12-.44-.22-.7-.31s-.6-.25-1.01-.48c-.7-1.05-1.23-2.14-1.58-3.25-.35-1.11-.7-2.21-1.05-3.3-.35-1.08-.79-2.14-1.32-3.16-.53-1.02-1.32-1.98-2.37-2.86.18-.58.26-1.23.26-1.93,0-1.23-.23-2.42-.7-3.56-.47-1.14-.98-2.29-1.54-3.43-.56-1.14-1.07-2.31-1.54-3.52-.47-1.2-.7-2.47-.7-3.82,0-.82.07-1.64.22-2.46.15-.82.22-1.64.22-2.46,0-1.11-.13-2.2-.4-3.25s-.54-2.09-.83-3.12c-.29-1.02-.57-2.07-.83-3.12s-.4-2.14-.4-3.25c0-.35.01-.72.04-1.1.03-.38.07-.75.13-1.1.35-2.11.62-4.25.79-6.42.18-2.17.35-4.32.53-6.46.18-2.14.38-4.28.62-6.42.23-2.14.58-4.26,1.05-6.37.47-2.05.89-4.07,1.27-6.06.38-1.99.57-4.01.57-6.06.47-.64,1.1-1.32,1.89-2.02s1.58-1.42,2.37-2.15c.79-.73,1.49-1.49,2.11-2.29s1.01-1.57,1.19-2.33c.18-.76.66-1.7,1.45-2.81.79-1.11,1.7-2.23,2.72-3.34,1.02-1.11,2.08-2.08,3.16-2.9,1.08-.82,2.01-1.29,2.77-1.41.35-.06.75-.09,1.19-.09s.85-.06,1.23-.18c.38-.12.72-.29,1.01-.53.29-.23.44-.62.44-1.14,0-.41-.09-.85-.26-1.32,3.16-.29,6.3-.79,9.4-1.49,3.1-.7,6.24-1.05,9.4-1.05.7,0,1.82.03,3.34.09,1.52.06,3.06.25,4.61.57,1.55.32,2.91.79,4.09,1.41,1.17.62,1.76,1.45,1.76,2.5v.44c.18-.06.37-.09.57-.09h.57c.94,0,1.85.18,2.72.53s1.79.53,2.72.53,1.92-.04,2.94-.13c1.02-.09,2.05-.26,3.08-.53,1.02-.26,1.96-.63,2.81-1.1.85-.47,1.57-1.05,2.15-1.76,1.29,0,2.34.63,3.16,1.89.82,1.26,1.46,2.74,1.93,4.44.47,1.7.8,3.41,1.01,5.14.2,1.73.31,3.06.31,4,0,1.41-.1,2.81-.31,4.22-.21,1.41-.57,2.78-1.1,4.13.12.76.37,1.44.75,2.02.38.59.79,1.16,1.23,1.71.44.56.83,1.14,1.19,1.76s.53,1.3.53,2.07c-.41,1.05-.66,2.56-.75,4.53-.09,1.96-.26,3.93-.53,5.89-.26,1.96-.76,3.66-1.49,5.1-.73,1.44-1.95,2.15-3.65,2.15-1.17,0-2.17-.4-2.99-1.19-.82-.79-1.44-1.68-1.85-2.68l.18.09c.76,0,1.14-.35,1.14-1.05,0-.18-.19-.41-.57-.7-.38-.29-.81-.6-1.27-.92-.47-.32-.94-.64-1.41-.97-.47-.32-.82-.63-1.05-.92-.47-.58-.91-1.35-1.32-2.29-.41-.94-.76-1.95-1.05-3.03-.29-1.08-.53-2.17-.7-3.25-.18-1.08-.26-2.09-.26-3.03v-.79c0-.23.03-.47.09-.7l-.09.09c-.18-.06-.54-.44-1.1-1.14-.56-.7-1.17-1.48-1.85-2.33-.67-.85-1.32-1.67-1.93-2.46s-1.04-1.33-1.27-1.63c-1.17-1.17-2.43-2.23-3.78-3.16-1.35-.94-2.61-1.99-3.78-3.16-.47.29-.95.54-1.45.75-.5.21-1.01.31-1.54.31-.47,0-.85-.1-1.14-.31-.29-.21-.59-.44-.88-.7-.29-.26-.62-.51-.97-.75-.35-.23-.82-.35-1.41-.35-1.29,0-2.54.15-3.74.44-1.2.29-2.45.44-3.74.44s-2.68-.26-4-.79-2.68-.79-4.09-.79c-.12,0-.28.03-.48.09-.21.06-.37.12-.48.18.06.53.2,1.03.44,1.49.23.47.35.97.35,1.49,0,.82-.34,1.61-1.01,2.37-.67.76-1.47,1.49-2.37,2.2-.91.7-1.82,1.39-2.72,2.07-.91.67-1.6,1.3-2.07,1.89-.65.82-1.16,1.7-1.54,2.64-.38.94-.75,1.86-1.1,2.77-.35.91-.81,1.77-1.36,2.59-.56.82-1.33,1.49-2.33,2.02.47,1.23.7,2.4.7,3.52,0,.82-.06,1.6-.18,2.33-.12.73-.18,1.51-.18,2.33,0,1.88.15,3.74.44,5.58.29,1.85.44,3.71.44,5.58,0,1.52-.13,3.03-.4,4.53s-.57,2.99-.92,4.48-.66,2.99-.92,4.48-.4,3-.4,4.53c0,1.35.16,2.64.48,3.87.32,1.23.69,2.43,1.1,3.6.41,1.17.78,2.29,1.1,3.34.32,1.05.48,2.05.48,2.99,0,.65-.06,1.29-.18,1.93-.12.65-.18,1.29-.18,1.93,0,2.52.56,4.64,1.67,6.37,1.11,1.73,2.39,3.35,3.82,4.88,1.44,1.52,2.83,3.06,4.17,4.61,1.35,1.55,2.25,3.41,2.72,5.58.88-.18,1.73-.26,2.55-.26,1.05,0,2.11.12,3.16.35,1.05.23,2.08.51,3.08.83,1,.32,2.02.6,3.08.83,1.05.23,2.11.35,3.16.35,2.23,0,4.5-.45,6.81-1.36,2.31-.91,4.45-2.12,6.42-3.65,1.96-1.52,3.68-3.28,5.14-5.27,1.46-1.99,2.46-4.07,2.99-6.24.47-2.11,1.14-4.1,2.02-5.98.35-.7.7-1.14,1.05-1.32s.67-.29.97-.35c.29-.06.53-.12.7-.18.18-.06.26-.26.26-.62s-.19-.67-.57-.97c-.38-.29-.57-.67-.57-1.14,0-.18.12-.4.35-.66.23-.26.51-.57.83-.92.32-.35.6-.78.83-1.27.23-.5.35-1.04.35-1.63,0-1.23-.35-2.23-1.05-2.99-.7-.76-1.58-1.42-2.64-1.98-1.05-.56-2.18-1.05-3.38-1.49-1.2-.44-2.33-.98-3.38-1.63-1.05-.64-1.93-1.45-2.64-2.42s-1.05-2.24-1.05-3.82c0-1.29.34-2.36,1.01-3.21.67-.85,1.52-1.54,2.55-2.07,1.02-.53,2.12-.92,3.3-1.19,1.17-.26,2.29-.48,3.34-.66.7-.12,1.46-.34,2.29-.66.82-.32,1.64-.64,2.46-.97.82-.32,1.6-.62,2.33-.88.73-.26,1.39-.4,1.98-.4.82,0,1.64.16,2.46.48.82.32,1.64.54,2.46.66,1.11.18,2.5.41,4.17.7,1.67.29,3.27.73,4.79,1.32,1.52.59,2.83,1.36,3.91,2.33,1.08.97,1.63,2.24,1.63,3.82Z" fill="url(#linear-gradient-8)"/>
      <path d="M951.76,1099.5c0,.35-.06.87-.18,1.54-.12.67-.29,1.33-.53,1.98-.23.65-.53,1.22-.88,1.71-.35.5-.76.75-1.23.75-.23,0-.44-.03-.62-.09-.18-.06-.38-.09-.62-.09-.41,0-.78.19-1.1.57-.32.38-.67.82-1.05,1.32-.38.5-.82.94-1.32,1.32-.5.38-1.13.57-1.89.57-.29,0-.73-.06-1.32-.18.23,1.17.41,2.34.53,3.52.12,1.17.18,2.34.18,3.52,0,1.88-.12,3.71-.35,5.49-.23,1.79-.5,3.59-.79,5.41-.29,1.82-.56,3.63-.79,5.45-.23,1.82-.35,3.63-.35,5.45,0,2.17.16,4.31.48,6.42.32,2.11.48,4.25.48,6.42,0,.94-.09,1.92-.26,2.94-.18,1.03-.48,1.98-.92,2.86s-1.04,1.61-1.8,2.2-1.7.88-2.81.88c-1.64,0-2.92-.51-3.82-1.54-.91-1.02-1.67-2.14-2.29-3.34-.62-1.2-1.17-2.31-1.67-3.34-.5-1.02-1.16-1.54-1.98-1.54-.41,0-.92.22-1.54.66s-1.3.95-2.07,1.54c-.76.59-1.6,1.14-2.5,1.67-.91.53-1.83.88-2.77,1.05-1.11.23-1.88.56-2.29.97-.41.41-.82.81-1.23,1.19-.41.38-1.01.72-1.8,1.01-.79.29-2.15.44-4.09.44-1.29,0-2.56-.06-3.82-.18-1.26-.12-2.54-.18-3.82-.18-.94,0-1.86.06-2.77.18-.91.12-1.83.18-2.77.18-1.47,0-2.67-.13-3.6-.4-.94-.26-1.77-.6-2.5-1.01-.73-.41-1.49-.83-2.29-1.27s-1.8-.83-3.03-1.19c-.94-.29-1.7-.54-2.29-.75-.59-.21-1.11-.44-1.58-.7-.47-.26-.94-.58-1.41-.97-.47-.38-1.08-.89-1.85-1.54-.47-.35-1-.7-1.58-1.05-.59-.35-1.14-.72-1.67-1.1-.53-.38-.98-.8-1.36-1.27-.38-.47-.6-1.05-.66-1.76-.06-.53-.15-.91-.26-1.14-.12-.23-.28-.41-.48-.53-.21-.12-.44-.22-.7-.31s-.6-.25-1.01-.48c-.7-1.05-1.23-2.14-1.58-3.25-.35-1.11-.7-2.21-1.05-3.3-.35-1.08-.79-2.14-1.32-3.16-.53-1.02-1.32-1.98-2.37-2.86.18-.58.26-1.23.26-1.93,0-1.23-.23-2.42-.7-3.56-.47-1.14-.98-2.29-1.54-3.43-.56-1.14-1.07-2.31-1.54-3.52-.47-1.2-.7-2.47-.7-3.82,0-.82.07-1.64.22-2.46.15-.82.22-1.64.22-2.46,0-1.11-.13-2.2-.4-3.25s-.54-2.09-.83-3.12c-.29-1.02-.57-2.07-.83-3.12s-.4-2.14-.4-3.25c0-.35.01-.72.04-1.1.03-.38.07-.75.13-1.1.35-2.11.62-4.25.79-6.42.18-2.17.35-4.32.53-6.46.18-2.14.38-4.28.62-6.42.23-2.14.58-4.26,1.05-6.37.47-2.05.89-4.07,1.27-6.06.38-1.99.57-4.01.57-6.06.47-.64,1.1-1.32,1.89-2.02s1.58-1.42,2.37-2.15c.79-.73,1.49-1.49,2.11-2.29s1.01-1.57,1.19-2.33c.18-.76.66-1.7,1.45-2.81.79-1.11,1.7-2.23,2.72-3.34,1.02-1.11,2.08-2.08,3.16-2.9,1.08-.82,2.01-1.29,2.77-1.41.35-.06.75-.09,1.19-.09s.85-.06,1.23-.18c.38-.12.72-.29,1.01-.53.29-.23.44-.62.44-1.14,0-.41-.09-.85-.26-1.32,3.16-.29,6.3-.79,9.4-1.49,3.1-.7,6.24-1.05,9.4-1.05.7,0,1.82.03,3.34.09,1.52.06,3.06.25,4.62.57,1.55.32,2.91.79,4.09,1.41s1.76,1.45,1.76,2.5v.44c.18-.06.37-.09.57-.09h.57c.94,0,1.85.18,2.72.53s1.79.53,2.72.53,1.92-.04,2.95-.13c1.02-.09,2.05-.26,3.08-.53,1.02-.26,1.96-.63,2.81-1.1.85-.47,1.57-1.05,2.15-1.76,1.29,0,2.34.63,3.16,1.89.82,1.26,1.46,2.74,1.93,4.44.47,1.7.8,3.41,1.01,5.14.2,1.73.31,3.06.31,4,0,1.41-.1,2.81-.31,4.22-.21,1.41-.57,2.78-1.1,4.13.12.76.37,1.44.75,2.02.38.59.79,1.16,1.23,1.71.44.56.83,1.14,1.19,1.76s.53,1.3.53,2.07c-.41,1.05-.66,2.56-.75,4.53-.09,1.96-.26,3.93-.53,5.89-.26,1.96-.76,3.66-1.49,5.1-.73,1.44-1.95,2.15-3.65,2.15-1.17,0-2.17-.4-2.99-1.19s-1.44-1.68-1.85-2.68l.18.09c.76,0,1.14-.35,1.14-1.05,0-.18-.19-.41-.57-.7-.38-.29-.81-.6-1.28-.92-.47-.32-.94-.64-1.41-.97-.47-.32-.82-.63-1.05-.92-.47-.58-.91-1.35-1.32-2.29-.41-.94-.76-1.95-1.05-3.03-.29-1.08-.53-2.17-.7-3.25-.18-1.08-.26-2.09-.26-3.03v-.79c0-.23.03-.47.09-.7l-.09.09c-.18-.06-.54-.44-1.1-1.14-.56-.7-1.17-1.48-1.85-2.33-.67-.85-1.32-1.67-1.93-2.46s-1.04-1.33-1.28-1.63c-1.17-1.17-2.43-2.23-3.78-3.16-1.35-.94-2.61-1.99-3.78-3.16-.47.29-.95.54-1.45.75-.5.21-1.01.31-1.54.31-.47,0-.85-.1-1.14-.31-.29-.21-.59-.44-.88-.7s-.62-.51-.97-.75c-.35-.23-.82-.35-1.41-.35-1.29,0-2.53.15-3.73.44-1.2.29-2.45.44-3.74.44s-2.68-.26-4-.79-2.68-.79-4.09-.79c-.12,0-.28.03-.48.09-.21.06-.37.12-.48.18.06.53.2,1.03.44,1.49.23.47.35.97.35,1.49,0,.82-.34,1.61-1.01,2.37-.67.76-1.47,1.49-2.37,2.2-.91.7-1.82,1.39-2.72,2.07-.91.67-1.6,1.3-2.07,1.89-.65.82-1.16,1.7-1.54,2.64-.38.94-.75,1.86-1.1,2.77-.35.91-.81,1.77-1.36,2.59-.56.82-1.33,1.49-2.33,2.02.47,1.23.7,2.4.7,3.52,0,.82-.06,1.6-.18,2.33-.12.73-.18,1.51-.18,2.33,0,1.88.15,3.74.44,5.58.29,1.85.44,3.71.44,5.58,0,1.52-.13,3.03-.4,4.53s-.57,2.99-.92,4.48-.66,2.99-.92,4.48-.4,3-.4,4.53c0,1.35.16,2.64.48,3.87.32,1.23.69,2.43,1.1,3.6.41,1.17.78,2.29,1.1,3.34.32,1.05.48,2.05.48,2.99,0,.65-.06,1.29-.18,1.93-.12.65-.18,1.29-.18,1.93,0,2.52.56,4.64,1.67,6.37,1.11,1.73,2.39,3.35,3.82,4.88,1.44,1.52,2.83,3.06,4.17,4.61,1.35,1.55,2.25,3.41,2.72,5.58.88-.18,1.73-.26,2.55-.26,1.05,0,2.11.12,3.16.35,1.05.23,2.08.51,3.08.83,1,.32,2.02.6,3.08.83,1.05.23,2.11.35,3.16.35,2.23,0,4.5-.45,6.81-1.36,2.31-.91,4.45-2.12,6.42-3.65,1.96-1.52,3.68-3.28,5.14-5.27,1.46-1.99,2.46-4.07,2.99-6.24.47-2.11,1.14-4.1,2.02-5.98.35-.7.7-1.14,1.05-1.32s.67-.29.97-.35c.29-.06.53-.12.7-.18.18-.06.26-.26.26-.62s-.19-.67-.57-.97c-.38-.29-.57-.67-.57-1.14,0-.18.12-.4.35-.66s.51-.57.84-.92c.32-.35.6-.78.83-1.27.23-.5.35-1.04.35-1.63,0-1.23-.35-2.23-1.05-2.99-.7-.76-1.58-1.42-2.64-1.98-1.05-.56-2.18-1.05-3.38-1.49-1.2-.44-2.33-.98-3.38-1.63-1.05-.64-1.93-1.45-2.64-2.42s-1.05-2.24-1.05-3.82c0-1.29.34-2.36,1.01-3.21.67-.85,1.52-1.54,2.55-2.07,1.02-.53,2.12-.92,3.29-1.19s2.29-.48,3.34-.66c.7-.12,1.46-.34,2.29-.66.82-.32,1.64-.64,2.46-.97.82-.32,1.6-.62,2.33-.88.73-.26,1.39-.4,1.98-.4.82,0,1.64.16,2.46.48.82.32,1.64.54,2.46.66,1.11.18,2.51.41,4.18.7,1.67.29,3.27.73,4.79,1.32,1.52.59,2.83,1.36,3.91,2.33,1.08.97,1.62,2.24,1.62,3.82Z" fill="url(#linear-gradient-9)"/>
      <path d="M1064.66,1071.29c0,.23-.15.7-.44,1.41-.29.7-.63,1.46-1.01,2.29-.38.82-.78,1.58-1.19,2.29-.41.7-.73,1.17-.97,1.41l.18.09c-.12,0-.23.03-.35.09h-.44c-.23.06-.48.09-.75.09h-.83l.35-.09c-1.35-.06-2.56-.31-3.65-.75-1.08-.44-1.98-1.27-2.68-2.5-.12-.23-.29-.66-.53-1.27-.23-.62-.47-1.27-.7-1.98-.23-.7-.43-1.36-.57-1.98-.15-.62-.22-1.07-.22-1.36,0-.47.04-.97.13-1.49s.13-1.02.13-1.49c0-1.82-.18-3.6-.53-5.36s-.53-3.54-.53-5.36c0-1.17.15-2.31.44-3.43.29-1.11.82-2.14,1.58-3.08h-.44c-.7,0-1.26-.22-1.67-.66-.41-.44-1.08-.66-2.02-.66-2.23,0-4.39.26-6.5.79s-4.34.79-6.68.79c-.94,0-1.88-.01-2.81-.04-.94-.03-1.9-.04-2.9-.04-1.82,0-3.6.21-5.36.62-1.76.41-3.46.62-5.1.62-.18,0-.26-.03-.26-.09,0-.12.21-.28.62-.48.41-.21.62-.37.62-.48,0-.23-.19-.35-.57-.35h-.75c-.47,0-.87.23-1.19.7-.32.47-.81.79-1.45.97-.88.23-1.82.35-2.81.35h-2.9c-.59,0-1.44-.03-2.55-.09-1.11-.06-2.23-.19-3.34-.4-1.11-.21-2.12-.53-3.03-.97-.91-.44-1.42-1.07-1.54-1.89-.65.18-1.07.48-1.27.92-.21.44-.38.89-.53,1.36-.15.47-.37.89-.66,1.27-.29.38-.88.6-1.76.66-1.64.12-2.7.65-3.16,1.58-.47.94-.7,1.99-.7,3.16,0,.65.03,1.29.09,1.93.06.65.09,1.29.09,1.93,0,2.34-.04,4.67-.13,6.99-.09,2.32-.13,4.64-.13,6.99,0,1,.01,2.33.04,4,.03,1.67.15,3.31.35,4.92.2,1.61.51,3.05.92,4.31.41,1.26,1,1.98,1.76,2.15.47.12.97.19,1.49.22.53.03,1.05.04,1.58.04,2.05,0,4.06-.23,6.02-.7,1.96-.47,3.97-.7,6.02-.7.82,0,1.6.12,2.33.35.73.23,1.48.35,2.24.35,1.11,0,1.98-.54,2.59-1.63.62-1.08,1.05-2.34,1.32-3.78.26-1.44.42-2.89.48-4.35.06-1.46.09-2.55.09-3.25,0-1.46-.04-2.91-.13-4.35-.09-1.44-.13-2.89-.13-4.35h.53c1.46,0,2.84.23,4.13.7,1.29.47,2.64.7,4.04.7.58,0,1.02-.03,1.32-.09,0,1.17.21,2.34.62,3.52.41,1.17.62,2.37.62,3.6,0,1.52-.82,2.49-2.46,2.9.47.82.85,1.64,1.14,2.46.29.82.44,1.67.44,2.55,0,.65-.06,1.27-.18,1.89-.12.62-.18,1.25-.18,1.89,0,.59.19,1.04.57,1.36.38.32.57.69.57,1.1,0,.7-.28,1.58-.83,2.64-.56,1.05-.83,2.14-.83,3.25,0,1.29.12,2.64.35,4.04.23,1.41.5,2.87.79,4.39.29,1.52.56,3.06.79,4.61.23,1.55.35,3.12.35,4.7,0,.94-.04,1.9-.13,2.9-.09,1-.29,1.95-.62,2.86-.32.91-.76,1.74-1.32,2.5-.56.76-1.27,1.41-2.15,1.93-1.11-.12-2.05-.45-2.81-1.01-.76-.56-1.39-1.23-1.89-2.02-.5-.79-.88-1.67-1.14-2.64s-.45-1.95-.57-2.94c-.23-1.52-.35-2.93-.35-4.22s-.28-2.39-.83-3.3c-.56-.91-1.61-1.63-3.16-2.15-1.55-.53-3.97-.79-7.25-.79-.94,0-2.27.09-4,.26-1.73.18-3.44.48-5.14.92-1.7.44-3.18,1.07-4.44,1.89-1.26.82-1.89,1.85-1.89,3.08,0,.7.07,1.39.22,2.07.15.67.22,1.36.22,2.07,0,.59-.03,1.17-.09,1.76-.06.59-.09,1.2-.09,1.85,0,1.58.09,3.15.26,4.7.18,1.55.26,3.12.26,4.7,0,1.7-.22,3.37-.66,5.01-.44,1.64-.66,3.31-.66,5.01,0,1.88.45,3.35,1.36,4.44.91,1.08,2.07,1.9,3.47,2.46,1.41.56,2.93.92,4.57,1.1,1.64.18,3.16.26,4.57.26,2.81,0,5.62-.18,8.44-.53s5.62-.53,8.44-.53c1.76,0,3.52.09,5.27.26s3.52.26,5.27.26c1.35,0,2.84-.04,4.48-.13,1.64-.09,3.21-.37,4.7-.83,1.49-.47,2.78-1.16,3.87-2.07,1.08-.91,1.77-2.21,2.07-3.91.06-.47.22-.8.48-1.01.26-.21.56-.38.88-.53.32-.15.6-.31.83-.48.23-.18.35-.47.35-.88,0-.47-.18-1.01-.53-1.63s-.59-1.19-.7-1.71c-.23-1.11-.37-2.24-.4-3.38-.03-1.14-.04-2.27-.04-3.38,0-1.76.28-3.3.83-4.61.56-1.32.83-2.77.83-4.35,0-.47-.02-.91-.04-1.32-.03-.41-.04-.85-.04-1.32,0-.35.26-.7.79-1.05s1.14-.66,1.85-.92,1.41-.48,2.11-.66,1.23-.26,1.58-.26c1.46,0,2.67.51,3.6,1.54.94,1.03,1.65,2.27,2.15,3.74.5,1.46.83,2.99,1.01,4.57s.26,2.93.26,4.04c0,1.82-.15,3.87-.44,6.15-.29,2.29-.69,4.63-1.19,7.03-.5,2.4-1.07,4.73-1.71,6.99-.65,2.26-1.29,4.23-1.93,5.93-.35.82-.69,1.44-1.01,1.85-.32.41-.67.75-1.05,1.01-.38.26-.79.53-1.23.79s-.92.69-1.45,1.27c-.47.53-1.36.88-2.68,1.05s-2.71.26-4.17.26c-1.11,0-2.17-.03-3.16-.09-1-.06-1.76-.09-2.29-.09-1.93,0-3.5.23-4.7.7-1.2.47-2.33.7-3.38.7-.76,0-1.26-.16-1.49-.48-.23-.32-.59-.48-1.05-.48-.41,0-.79.18-1.14.53s-.88.53-1.58.53-1.42-.01-2.15-.04c-.73-.03-1.48-.04-2.24-.04-4.39,0-8.76.13-13.1.4-4.34.26-8.7.45-13.1.57-2.99.12-5.95.47-8.88,1.05-2.93.58-5.89.88-8.88.88-1.05,0-2.26-.1-3.6-.31-1.35-.21-2.62-.57-3.82-1.1-1.2-.53-2.21-1.25-3.03-2.15-.82-.91-1.23-2.04-1.23-3.38s.47-2.52,1.41-3.69c.94-1.17,2.07-2.25,3.38-3.25,1.32-1,2.68-1.92,4.09-2.77,1.41-.85,2.55-1.66,3.43-2.42-.06-.47-.09-.91-.09-1.32v-1.23c0-.88.01-1.76.04-2.64.03-.88.19-1.76.48-2.64.12-.53.42-1.16.92-1.89.5-.73.75-1.36.75-1.89,0-.41-.07-.79-.22-1.14-.15-.35-.28-.73-.4-1.14-.65-1.58-1.1-2.99-1.36-4.22s-.4-2.72-.4-4.48c0-1.05.01-1.98.04-2.77.03-.79.09-1.55.18-2.29.09-.73.23-1.49.44-2.29.2-.79.48-1.68.83-2.68-.23-.41-.5-1.02-.79-1.85-.29-.82-.44-1.46-.44-1.93l1.23-12.48c-.06-.18-.09-.47-.09-.88,0-.53.09-1.05.26-1.58s.26-1.08.26-1.67c0-1.35-.23-2.68-.7-4-.47-1.32-.7-2.65-.7-4,0-.47.12-1.02.35-1.67.23-.64.48-1.35.75-2.11.26-.76.51-1.6.75-2.5.23-.91.35-1.89.35-2.94,0-.82-.19-1.52-.57-2.11-.38-.58-.57-1.26-.57-2.02,0-.7.18-1.41.53-2.11s.53-1.46.53-2.29c0-1.17-.22-2.3-.66-3.38-.44-1.08-.89-2.12-1.36-3.12-.7-1.46-1.25-2.65-1.63-3.56-.38-.91-.83-1.64-1.36-2.2-.53-.56-1.25-.97-2.15-1.23-.91-.26-2.21-.45-3.91-.57-.82-.06-1.6-.31-2.33-.75-.73-.44-1.38-1.01-1.93-1.71-.56-.7-1.01-1.46-1.36-2.29-.35-.82-.53-1.61-.53-2.37,0-1.05.47-1.95,1.41-2.68.94-.73,2.14-1.32,3.6-1.76,1.46-.44,3.11-.79,4.92-1.05,1.82-.26,3.59-.47,5.32-.62,1.73-.15,3.31-.25,4.75-.31,1.43-.06,2.53-.15,3.3-.26,1.17-.18,2.31-.29,3.43-.35,1.11-.06,2.25-.09,3.43-.09,2.29,0,4.58.07,6.9.22,2.31.15,4.61.22,6.9.22,2.46,0,4.88-.23,7.25-.7,2.37-.47,4.79-.7,7.25-.7,2.23,0,4.42.25,6.59.75,2.17.5,4.31.75,6.42.75s4.07-.25,6.06-.75c1.99-.5,4.01-.75,6.06-.75.88,0,1.76.09,2.64.26,1.29,1.41,2.47,2.58,3.56,3.52,1.08.94,2.02,1.89,2.81,2.86s1.43,2.1,1.93,3.38c.5,1.29.83,2.99,1.01,5.1.06.76.09,1.68.09,2.77s.03,2.14.09,3.16c.06,1.03.22,1.95.48,2.77.26.82.69,1.32,1.27,1.49,0,.82-.41,1.23-1.23,1.23.06.82.23,1.66.53,2.5.29.85.58,1.7.88,2.55.29.85.56,1.7.79,2.55.23.85.35,1.66.35,2.42ZM988.55,1092.91c-.35,0-.67.06-.97.18-.29.12-.5.38-.62.79,2.23,1.29,4,2.5,5.32,3.65s2.34,2.07,3.08,2.77c.73.7,1.27,1.1,1.63,1.19s.7-.28,1.05-1.1c.47-1.05.4-2.05-.22-2.99-.62-.94-1.47-1.73-2.55-2.37-1.08-.64-2.26-1.16-3.52-1.54-1.26-.38-2.33-.57-3.21-.57Z" fill="url(#linear-gradient-10)"/>
      <path d="M1188.19,1145.11c0,.53-.03,1.23-.09,2.11-.06.88-.35,1.46-.88,1.76-.59.29-.95.79-1.1,1.49s-.22,1.41-.22,2.11-.03,1.33-.09,1.89c-.06.56-.29.83-.7.83-.29,0-.53-.07-.7-.22-.18-.15-.41-.22-.7-.22s-.59.15-.88.44c-.29.29-.44.59-.44.88s.1.51.31.66c.21.15.31.37.31.66,0,.23-.44.51-1.32.83-.88.32-1.88.65-2.99.97-1.11.32-2.2.58-3.25.79-1.05.21-1.76.31-2.11.31-2.11,0-4.22-.38-6.33-1.14s-4.16-1.46-6.15-2.11c-2.4-.82-4.18-2.17-5.32-4.04-1.14-1.88-1.98-3.98-2.5-6.33-.53-2.34-.92-4.75-1.19-7.21s-.75-4.66-1.45-6.59c-.29-.88-.44-1.61-.44-2.2s.07-1.07.22-1.45c.15-.38.32-.7.53-.97s.38-.5.53-.7c.15-.21.22-.42.22-.66,0-.7-.21-1.41-.62-2.11-.41-.7-.62-1.64-.62-2.81,0-.64.01-1.27.04-1.89s.04-1.24.04-1.89c0-2.17-.19-3.96-.57-5.36s-.91-2.69-1.58-3.87c-.67-1.17-1.46-2.34-2.37-3.52-.91-1.17-1.92-2.58-3.03-4.22-.53.12-1.07.18-1.63.18h-1.71c-1.17,0-2.33-.06-3.47-.18-1.14-.12-2.3-.18-3.47-.18-1.23,0-2.48.12-3.74.35-1.26.23-2.54.35-3.82.35-.82,0-1.64-.13-2.46-.4-.82-.26-1.64-.4-2.46-.4-1,0-1.99.19-2.99.57-1,.38-1.91.91-2.72,1.58-.82.67-1.48,1.46-1.98,2.37-.5.91-.75,1.89-.75,2.94v2.81c0,5.1-.44,10.11-1.32,15.03-.12.76-.24,1.51-.35,2.24-.12.73-.18,1.51-.18,2.33,0,2.4.48,4.34,1.45,5.8.97,1.46,2.15,2.65,3.56,3.56,1.41.91,2.96,1.66,4.66,2.24,1.7.59,3.25,1.19,4.66,1.8s2.59,1.36,3.56,2.24,1.45,2.08,1.45,3.6c0,.59-.1,1.13-.31,1.63-.21.5-.45.98-.75,1.45-.76,1.23-1.48,2.15-2.15,2.77s-1.41,1.1-2.2,1.45-1.66.62-2.59.79c-.94.18-2.05.41-3.34.7-1,.23-2.04.4-3.12.48s-2.15.13-3.21.13c-1.64,0-3.25-.19-4.83-.57s-3.2-.57-4.83-.57c-1.23,0-2.48.1-3.74.31-1.26.21-2.5.44-3.73.7s-2.46.5-3.69.7c-1.23.21-2.46.31-3.69.31-.82,0-1.71-.09-2.68-.26s-1.86-.48-2.68-.92c-.82-.44-1.51-1.01-2.07-1.71s-.83-1.55-.83-2.55c0-.82.2-1.55.62-2.2.41-.64.95-1.2,1.62-1.67.67-.47,1.39-.85,2.15-1.14.76-.29,1.49-.47,2.2-.53.64-.06,1.19-.09,1.62-.09s.82-.06,1.14-.18c.32-.12.66-.29,1.01-.53.35-.23.76-.58,1.23-1.05.29-.29.57-.53.83-.7s.6-.26,1.01-.26c.29,0,.58.03.88.09.29.06.58.09.88.09.47,0,.94-.15,1.41-.44,1.23-.7,2.11-1.61,2.64-2.72.53-1.11.88-2.33,1.05-3.65s.28-2.68.31-4.09.19-2.69.48-3.87c.29-1.29.44-2.49.44-3.6,0-2.05-.25-4.07-.75-6.06-.5-1.99-.75-4.01-.75-6.06,0-2.46.18-4.92.53-7.38s.53-4.92.53-7.38c0-.64-.02-1.26-.04-1.85-.03-.58-.04-1.2-.04-1.85,0-4.22.26-8.38.79-12.48.53-4.1.79-8.26.79-12.48,0-1.17-.03-2.31-.09-3.43-.06-1.11-.15-2.25-.26-3.43-.12-.94-.24-2.09-.35-3.47-.12-1.38-.29-2.8-.53-4.26-.24-1.46-.54-2.93-.92-4.39-.38-1.46-.91-2.77-1.58-3.91s-1.49-2.08-2.46-2.81c-.97-.73-2.12-1.1-3.47-1.1-.29,0-.6.03-.92.09-.32.06-.63.09-.92.09-.65,0-1.17-.19-1.58-.57-.41-.38-.73-.85-.97-1.41-.24-.56-.4-1.16-.48-1.8-.09-.64-.13-1.2-.13-1.67,0-1.99.51-3.46,1.54-4.39,1.03-.94,2.29-1.58,3.78-1.93s3.11-.51,4.83-.48c1.73.03,3.27-.01,4.62-.13,1.52-.12,3.03-.38,4.53-.79,1.49-.41,3.03-.62,4.62-.62,2.29,0,4.54.29,6.77.88,2.23.59,4.48.88,6.77.88,1.87,0,3.69-.16,5.45-.48,1.76-.32,3.52-.78,5.27-1.36.88-.29,1.67-.44,2.37-.44,2.29,0,4.54.29,6.77.88,2.23.59,4.45.94,6.68,1.05,1.52.12,3.1.4,4.75.83,1.64.44,3.18,1.05,4.61,1.85s2.68,1.8,3.74,3.03,1.73,2.67,2.02,4.31c.18,1,.58,1.95,1.23,2.86.64.91,1.33,1.73,2.06,2.46.73.73,1.38,1.41,1.93,2.02s.84,1.13.84,1.54-.19.72-.57.92c-.38.21-.57.54-.57,1.01,0,.29.19.62.57.97s.8.76,1.28,1.23c.47.47.89.98,1.27,1.54.38.56.57,1.16.57,1.8,0,.88-.28,1.66-.84,2.33-.56.67-.83,1.45-.83,2.33l.18.26,1.23-.35.18.18c.23.94.34,1.92.31,2.94-.03,1.03-.04,1.95-.04,2.77,0,1.11-.03,2.34-.09,3.69-.06,1.35-.21,2.67-.44,3.96-.24,1.29-.59,2.49-1.05,3.6-.47,1.11-1.14,1.99-2.02,2.64-.53.41-1.07.72-1.63.92-.56.21-1.1.44-1.62.7s-1,.6-1.41,1.01c-.41.41-.73.97-.97,1.67-.29,1-.79,1.93-1.49,2.81s-1.42,1.74-2.15,2.59c-.73.85-1.38,1.71-1.93,2.59s-.83,1.85-.83,2.9c0,1.7.39,3.28,1.19,4.75.79,1.46,1.51,2.96,2.15,4.48.64,1.58,1.11,3.18,1.41,4.79.29,1.61.51,3.24.66,4.88.15,1.64.26,3.28.35,4.92.09,1.64.25,3.28.48,4.92.12.7.39,1.86.83,3.47.44,1.61.98,3.24,1.63,4.88.64,1.64,1.38,3.08,2.2,4.31.82,1.23,1.67,1.85,2.55,1.85.76,0,1.38-.41,1.85-1.23.47-.82.92-1.76,1.36-2.81s.94-2.08,1.49-3.08c.56-1,1.3-1.67,2.24-2.02,1.81.18,3.32.53,4.53,1.05s2.12,1.25,2.77,2.15c.64.91,1.1,2.02,1.36,3.34s.4,2.86.4,4.61ZM1161.91,1064.25c0-.82-.18-1.77-.53-2.86-.35-1.08-.79-2.18-1.32-3.3-.53-1.11-1.1-2.17-1.71-3.16-.62-1-1.22-1.82-1.8-2.46-1.23,0-2.05-.09-2.46-.26-.41-.18-.67-.4-.79-.66-.12-.26-.25-.57-.4-.92s-.57-.7-1.27-1.05c-2.05-1-3.9-1.76-5.54-2.29-1.64-.53-3.6-.79-5.89-.79-.65,0-1.28.18-1.89.53s-1.16.53-1.62.53c-1.35,0-2.67-.16-3.96-.48-1.29-.32-2.61-.48-3.96-.48-1.93,0-3.93.23-5.98.7-1.35.35-2.7.67-4.04.97-1.35.29-2.55.73-3.6,1.32-1.05.59-1.92,1.38-2.59,2.37-.67,1-1.01,2.37-1.01,4.13s.19,3.6.57,5.36.57,3.55.57,5.36c0,.88-.13,1.73-.4,2.55-.26.82-.54,1.63-.83,2.42-.29.79-.57,1.6-.84,2.42-.26.82-.39,1.67-.39,2.55,0,1.05.1,2.12.31,3.21.21,1.08.57,2.05,1.1,2.9.53.85,1.21,1.54,2.06,2.07s1.92.79,3.21.79,2.4-.25,3.52-.75c1.11-.5,2.29-.75,3.52-.75.64,0,1.26.16,1.85.48.58.32,1.17.66,1.76,1.01.58.35,1.2.69,1.85,1.01.64.32,1.35.48,2.11.48.58,0,1.14-.07,1.67-.22.53-.15,1.02-.34,1.49-.57,2.23-1,4.58-1.89,7.07-2.68s4.97-1.19,7.43-1.19c.64,0,1.41-.37,2.29-1.1.88-.73,1.79-1.67,2.72-2.81.94-1.14,1.87-2.4,2.81-3.78.94-1.38,1.77-2.75,2.5-4.13.73-1.38,1.32-2.64,1.76-3.78s.66-2.04.66-2.68Z" fill="url(#linear-gradient-11)"/>
      <path d="M1233.5,1044.57c-.7.18-1.32.43-1.85.75-.53.32-1.05.7-1.58,1.14s-1.1.95-1.71,1.54c-.62.59-1.36,1.26-2.24,2.02-.18,1.17-.26,2.34-.26,3.52,0,1.23.15,2.21.44,2.94.29.73.62,1.35.97,1.85.35.5.67.97.97,1.41.29.44.44.95.44,1.54,0,1.29.37,2.64,1.1,4.04.73,1.41,1.63,2.77,2.68,4.09s2.14,2.58,3.25,3.78c1.11,1.2,2.08,2.24,2.9,3.12h.26c.53,0,1.13-.23,1.8-.7.67-.47,1.33-1.04,1.98-1.71.64-.67,1.19-1.39,1.63-2.15.44-.76.66-1.41.66-1.93,0-.58.2-1.13.62-1.63.41-.5.89-1,1.45-1.49.56-.5,1.11-.97,1.67-1.41.56-.44.98-.92,1.27-1.45v-3.78c.35-.35.69-.67,1.01-.97.32-.29.6-.62.83-.97.23-.35.41-.76.53-1.23.12-.47.18-1.08.18-1.85,0-.47-.01-.89-.04-1.27-.03-.38-.04-.8-.04-1.27.41-.64.82-1.27,1.23-1.89.41-.62.85-1.22,1.32-1.8.53-1.23.54-2.11.04-2.64-.5-.53-1.23-.88-2.2-1.05s-2.01-.28-3.12-.31c-1.11-.03-2.02-.13-2.72-.31l-1.05-.18c-.7-.12-1.49-.34-2.37-.66-.88-.32-1.64-1.16-2.29-2.5-.7-1.41-.92-2.65-.66-3.74.26-1.08.78-2.01,1.54-2.77.76-.76,1.67-1.38,2.72-1.85,1.05-.47,2.02-.82,2.9-1.05,1.52-.47,3.03-.88,4.53-1.23s3-.53,4.53-.53c1.76,0,3.5.16,5.23.48,1.73.32,3.47.48,5.23.48,1.87,0,3.74-.18,5.58-.53s3.71-.53,5.58-.53c1.23,0,2.4.09,3.52.26,1.11.18,2.12.48,3.03.92.91.44,1.68,1.08,2.33,1.93.64.85,1.11,1.92,1.41,3.21.29,1.35.35,2.43.18,3.25-.18.82-.18,1.46,0,1.93-.82,2.11-1.92,3.63-3.3,4.57-1.38.94-2.86,1.61-4.44,2.02-1.58.41-3.19.75-4.83,1.01-1.64.26-3.11.78-4.39,1.54-1.29.76-2.36,1.96-3.21,3.6-.85,1.64-1.27,4.01-1.27,7.12-.82.53-1.67,1.25-2.55,2.15-.88.91-1.71,1.89-2.5,2.94s-1.52,2.12-2.2,3.21c-.67,1.08-1.19,2.07-1.54,2.94.64.23,1,.59,1.05,1.05-.47.82-.85,1.7-1.14,2.64-.29.94-.67,1.82-1.14,2.64-.35.65-.72,1.13-1.1,1.45-.38.32-.73.67-1.05,1.05-.32.38-.59.88-.79,1.49-.21.62-.31,1.51-.31,2.68,0,.53-.06,1.04-.18,1.54-.12.5-.44.95-.97,1.36-1.47,1.17-2.65,2.65-3.56,4.44-.91,1.79-1.61,3.69-2.11,5.71-.5,2.02-.83,4.07-1.01,6.15-.18,2.08-.26,4-.26,5.76,0,1.58.25,3.13.75,4.66.5,1.52.75,3.08.75,4.66s-.12,3.18-.35,4.79c-.24,1.61-.35,3.21-.35,4.79,0,.82.06,1.6.18,2.33.12.73.18,1.48.18,2.24,0,.82-.01,1.49-.04,2.02-.03.53-.04,1-.04,1.41,0,.65.15,1.2.44,1.67.29.47.94,1.29,1.93,2.46.23.29.57.76,1.01,1.41.44.65.83.97,1.19.97,1,0,1.98-.13,2.94-.4s1.93-.56,2.9-.88c.97-.32,1.93-.62,2.9-.88s1.98-.4,3.03-.4c.12,0,.45.06,1.01.18.56.12,1.17.26,1.85.44.67.18,1.35.34,2.02.48.67.15,1.21.25,1.63.31.23.41.45.81.66,1.19.21.38.4.81.57,1.27.53.23,1.13.48,1.8.75.67.26,1.3.59,1.89.97.58.38,1.08.83,1.49,1.36.41.53.62,1.14.62,1.85,0,.88-.13,1.74-.4,2.59-.26.85-.4,1.71-.4,2.59,0,.76-.67,1.35-2.02,1.76-1.35.41-2.9.72-4.66.92-1.76.21-3.46.34-5.1.4-1.64.06-2.75.09-3.34.09-3.99,0-7.92-.15-11.82-.44-3.9-.29-7.84-.44-11.82-.44-2.52,0-5,.22-7.43.66-2.43.44-4.88.66-7.34.66-1.35,0-2.67-.18-3.96-.53-1.29-.35-2.61-.53-3.96-.53-1.52,0-3,.25-4.44.75-1.44.5-2.92.75-4.44.75-.88,0-1.67-.12-2.37-.35,0-.76-.16-1.46-.48-2.11-.32-.64-.67-1.27-1.05-1.89-.38-.62-.73-1.24-1.05-1.89-.32-.64-.48-1.35-.48-2.11,0-1.41.63-2.56,1.89-3.47,1.26-.91,2.86-1.64,4.79-2.2,1.93-.56,4.09-.98,6.46-1.27,2.37-.29,4.7-.51,6.99-.66,2.29-.15,4.36-.25,6.24-.31,1.87-.06,3.31-.18,4.31-.35.58-1.11,1.05-2.49,1.41-4.13.35-1.64.63-3.41.83-5.32.21-1.9.34-3.88.4-5.93.06-2.05.09-4.07.09-6.06,0-2.69.03-5.2.09-7.51.06-2.31.01-4.53-.13-6.64-.15-2.11-.41-4.14-.79-6.11-.38-1.96-1.01-3.94-1.89-5.93-.76-1.7-1.77-3.19-3.03-4.48-1.26-1.29-2.36-2.72-3.3-4.31-1-1.7-1.79-3.5-2.37-5.41-.59-1.9-1.38-3.74-2.37-5.49-2.05-3.69-3.94-7.43-5.67-11.21-1.73-3.78-3.27-7.69-4.61-11.73-.82-.12-1.44-.32-1.85-.62-.41-.29-.75-.62-1.01-.97s-.54-.72-.83-1.1c-.29-.38-.73-.72-1.32-1.01-.7-.35-1.7-.63-2.99-.83-1.29-.21-2.7-.41-4.22-.62-1.52-.21-3.06-.45-4.61-.75-1.55-.29-2.97-.66-4.26-1.1s-2.34-1.02-3.16-1.76c-.82-.73-1.23-1.66-1.23-2.77,0-1.23.41-2.46,1.23-3.69.82-1.23,1.64-2.29,2.46-3.16.94-1,2.18-1.79,3.74-2.37,1.55-.58,3.19-1.04,4.92-1.36,1.73-.32,3.49-.53,5.27-.62,1.79-.09,3.41-.13,4.88-.13h1.85l5.62.09c1.52,0,2.96.13,4.31.4,1.35.26,2.67.57,3.96.92,1.29.35,2.59.72,3.91,1.1,1.32.38,2.74.69,4.26.92,1.11.06,2.02.6,2.72,1.63.7,1.03,1.17,2.18,1.41,3.47.23,1.29.25,2.55.04,3.78-.21,1.23-.66,2.11-1.36,2.64Z" fill="url(#linear-gradient-12)"/>
    </g>
    <text transform="translate(993 1201)" fill="silver" font-family="CourierNewPS-BoldMT, &apos;Courier New&apos;" font-size="48" font-weight="700" isolation="isolate"><tspan x="0" y="0">podcast.</tspan></text>
  </g>
</svg>